<svg width="50" height="32" viewBox="0 0 50 32" fill="none" xmlns="http://www.w3.org/2000/svg">
<path d="M17.48 31.864C16.488 28.856 15.496 25.944 14.504 23.128C13.544 20.28 12.6 17.544 11.672 14.92C10.744 12.296 9.88 9.832 9.08 7.528H8.744C8.744 7.656 8.712 8.2 8.648 9.16C8.584 10.088 8.488 11.256 8.36 12.664C8.264 14.04 8.152 15.512 8.024 17.08C7.896 18.648 7.768 20.152 7.64 21.592C7.544 23 7.464 24.2 7.4 25.192C7.336 26.152 7.304 26.744 7.304 26.968C7.304 27.96 7.816 28.456 8.84 28.456C9.064 28.456 9.4 28.456 9.848 28.456C10.328 28.424 10.6 28.408 10.664 28.408L10.808 28.648L10.328 31.192C10.2 31.192 9.816 31.176 9.176 31.144C8.536 31.112 7.848 31.08 7.112 31.048C6.376 31.016 5.752 31 5.24 31C4.792 31 4.312 31.016 3.8 31.048C3.32 31.08 2.84 31.128 2.36 31.192C1.912 31.256 1.544 31.304 1.256 31.336C0.968 31.368 0.824 31.384 0.824 31.384L1.112 28.744C2.104 28.648 2.808 28.344 3.224 27.832C3.672 27.32 3.96 26.424 4.088 25.144C4.152 24.696 4.248 23.928 4.376 22.84C4.504 21.72 4.632 20.44 4.76 19C4.92 17.528 5.064 16.04 5.192 14.536C5.352 13.032 5.496 11.592 5.624 10.216C5.784 8.84 5.896 7.688 5.96 6.76C6.056 5.832 6.104 5.272 6.104 5.08C6.104 4.504 5.976 4.056 5.72 3.736C5.464 3.384 5.048 3.112 4.472 2.92C3.928 2.728 3.176 2.6 2.216 2.536L2.024 2.248L2.408 0.0879974C2.664 0.0879974 3.144 0.103998 3.848 0.136C4.552 0.167999 5.288 0.215999 6.056 0.279998C6.856 0.311997 7.496 0.327997 7.976 0.327997C8.488 0.327997 9.032 0.311997 9.608 0.279998C10.184 0.247998 10.696 0.215999 11.144 0.183999C11.624 0.151999 11.944 0.136 12.104 0.136C13 3.144 13.864 5.944 14.696 8.536C15.528 11.096 16.28 13.368 16.952 15.352C17.624 17.304 18.168 18.888 18.584 20.104C19 21.288 19.24 22.008 19.304 22.264H19.592C19.656 22.04 19.896 21.32 20.312 20.104C20.76 18.888 21.32 17.304 21.992 15.352C22.696 13.368 23.48 11.096 24.344 8.536C25.208 5.976 26.12 3.208 27.08 0.231998C27.272 0.231998 27.624 0.247998 28.136 0.279998C28.648 0.311997 29.192 0.327997 29.768 0.327997C30.376 0.327997 30.904 0.327997 31.352 0.327997C31.864 0.327997 32.504 0.311997 33.272 0.279998C34.072 0.215999 34.776 0.167999 35.384 0.136C35.992 0.0719986 36.344 0.0399981 36.44 0.0399981L36.584 0.231998L36.296 2.488C34.92 2.616 33.96 2.872 33.416 3.256C32.872 3.64 32.6 4.248 32.6 5.08C32.6 5.432 32.616 6.104 32.648 7.096C32.712 8.088 32.792 9.288 32.888 10.696C32.984 12.072 33.08 13.544 33.176 15.112C33.304 16.68 33.416 18.232 33.512 19.768C33.64 21.304 33.752 22.712 33.848 23.992C34.04 25.784 34.28 26.984 34.568 27.592C34.888 28.168 35.416 28.456 36.152 28.456C36.44 28.456 36.728 28.44 37.016 28.408C37.304 28.376 37.464 28.36 37.496 28.36L37.64 28.6L37.208 31.144C37.144 31.144 36.84 31.128 36.296 31.096C35.752 31.064 35.128 31.032 34.424 31C33.72 31 33.096 31 32.552 31C32.008 31 31.416 31.016 30.776 31.048C30.136 31.08 29.496 31.128 28.856 31.192C28.248 31.256 27.736 31.304 27.32 31.336C26.936 31.368 26.728 31.384 26.696 31.384L26.984 28.744C27.944 28.616 28.632 28.376 29.048 28.024C29.496 27.64 29.72 27.08 29.72 26.344C29.72 26.088 29.688 25.496 29.624 24.568C29.56 23.608 29.48 22.472 29.384 21.16C29.288 19.816 29.176 18.408 29.048 16.936C28.952 15.464 28.856 14.072 28.76 12.76C28.664 11.416 28.568 10.28 28.472 9.352C28.408 8.392 28.376 7.784 28.376 7.528H28.04C27.432 9.224 26.792 11.016 26.12 12.904C25.448 14.792 24.744 16.76 24.008 18.808C23.272 20.856 22.536 22.936 21.8 25.048C21.064 27.16 20.328 29.304 19.592 31.48L17.48 31.864ZM46.4098 31.528C45.3858 31.528 44.6178 31.24 44.1058 30.664C43.5938 30.056 43.3378 29.32 43.3378 28.456C43.3378 27.464 43.6418 26.648 44.2498 26.008C44.8898 25.368 45.7058 25.048 46.6978 25.048C47.7218 25.048 48.4898 25.352 49.0018 25.96C49.5458 26.536 49.8178 27.272 49.8178 28.168C49.8178 29.096 49.5138 29.896 48.9058 30.568C48.2978 31.208 47.4658 31.528 46.4098 31.528Z" fill="#0A3C48"/>
</svg>
