<svg width="136" height="183" viewBox="0 0 136 183" fill="none" xmlns="http://www.w3.org/2000/svg">
<path d="M60.2751 59.0803C66.0551 77.6023 65.6341 98.0023 59.0961 116.27C57.1391 121.738 54.6521 127.02 53.0111 132.591C51.4031 138.051 50.6251 143.742 50.5201 149.433C50.4241 154.645 50.9131 159.968 52.9671 164.76C56.0301 171.905 62.3421 177.251 69.2811 180.757" stroke="#85AC8F" stroke-width="3" stroke-miterlimit="10" stroke-linecap="round" stroke-linejoin="round"/>
<path d="M133.469 67.7714C134.587 68.1204 135.974 68.9304 135.64 70.0524C129.785 68.6044 123.19 70.7574 119.317 75.3814C117.547 77.4954 116.304 80.0704 114.207 81.8604C112.46 83.3504 110.212 84.2104 108.624 85.8674C106.212 88.3844 105.76 92.2544 103.56 94.9594C101.045 98.0504 96.8231 99.0124 93.3001 100.875C84.5711 105.492 80.3051 115.566 72.8971 122.096C70.7591 123.98 68.3521 125.573 66.4281 127.676C64.5311 129.75 63.1681 132.249 61.9011 134.758C57.9611 142.558 54.7491 150.725 52.3211 159.119C51.7171 159.133 51.1121 159.147 50.5081 159.161C54.2021 146.033 59.2471 133.33 64.2821 120.655C65.5731 117.404 66.8741 114.135 68.7021 111.153C70.8041 107.724 73.5631 104.742 75.7661 101.377C79.3561 95.8944 81.5371 89.3224 86.4501 84.9844C88.5161 83.1594 90.9991 81.8014 92.8211 79.7324C94.3081 78.0424 95.3041 75.9294 96.9851 74.4314C98.3891 73.1794 100.17 72.4494 101.913 71.7414C106.302 69.9594 110.69 68.1774 115.079 66.3954C117.014 65.6094 118.995 64.8134 121.081 64.7094C123.27 64.6004 125.417 65.2604 127.51 65.9124C129.496 66.5324 131.483 67.1524 133.469 67.7714Z" fill="#85AC8F"/>
<path d="M64.937 125.631C68.214 119.407 71.949 113.421 76.027 107.678C80.101 101.929 84.595 96.4824 89.343 91.2744C94.147 86.1324 99.205 81.1454 104.979 77.0474C107.874 75.0204 110.933 73.2134 114.165 71.7804C117.405 70.3784 120.807 69.3224 124.295 68.8464C117.377 70.2244 111.035 73.5264 105.43 77.6704C99.818 81.8474 94.805 86.7784 90.078 91.9514C85.294 97.0764 80.836 102.501 76.647 108.128C72.455 113.755 68.572 119.612 64.937 125.631Z" fill="#EFE8CE"/>
<path d="M66.59 7.32733C61.341 12.3223 57.707 18.9873 56.352 26.1053C54.997 33.2233 55.928 40.7583 58.975 47.3323C67.285 41.2293 73.39 32.1873 75.945 22.1993C77.038 17.9283 77.497 13.5253 77.953 9.14033C78.144 7.30133 78.337 5.44833 78.279 3.59733C78.224 1.83033 78.473 -0.587667 76.305 0.129333C72.968 1.23333 69.098 4.94133 66.59 7.32733Z" fill="#FFDC8A"/>
<path d="M89.48 26.2524C92.543 24.9664 95.709 23.8764 98.988 23.3484C101.329 22.9714 103.789 22.8604 105.876 21.7344C102.578 29.8684 94.798 35.3684 86.706 38.7674C82.465 40.5494 78.055 41.8754 73.658 43.2084C71.427 43.8854 69.195 44.5594 66.984 45.2994C65.393 45.8324 63.286 47.0874 61.635 47.0664C61.653 45.5214 64.002 43.6894 65.044 42.6464C67.382 40.3044 69.888 38.1234 72.514 36.1094C77.718 32.1184 83.432 28.7914 89.48 26.2524Z" fill="#FFDC8A"/>
<path d="M91.0691 76.1303C94.6201 76.7903 98.3301 77.0753 101.807 76.1003C105.284 75.1253 108.509 72.7073 109.703 69.2993C104.683 71.6353 98.6491 70.4823 93.7191 67.9623C88.7891 65.4423 84.6181 61.6893 80.0861 58.5073C75.5541 55.3253 70.3491 52.6293 64.8131 52.7223C64.9931 52.7193 62.9461 56.9973 62.8551 57.3363C62.4511 58.8353 63.0001 59.6683 63.9361 60.8423C66.0851 63.5373 68.8101 65.8833 71.5961 67.8893C77.3621 72.0403 84.0911 74.8333 91.0691 76.1303Z" fill="#FFDC8A"/>
<path d="M44.3901 9.85531C41.0601 15.7813 41.9411 23.3503 44.9621 29.4393C47.9831 35.5283 52.8711 40.4533 57.6741 45.2633C54.2731 36.0893 55.2191 25.8263 52.4291 16.4493C52.0211 15.0763 51.5221 13.7053 50.6731 12.5523C50.2001 11.9103 49.6251 11.3443 49.1921 10.6743C48.1001 8.98531 48.9061 5.9533 47.7001 4.7113C46.4581 5.9373 45.2881 8.25631 44.3901 9.85531Z" fill="#FFDC8A"/>
<path d="M75.7401 43.9293C79.4021 43.1473 83.1011 42.4823 86.8401 42.2833C93.8181 41.9123 100.854 43.1683 107.781 42.2503C102.168 48.1223 94.4171 51.6913 86.4191 53.1123C78.4211 54.5333 70.1691 53.9163 62.2061 52.3063C61.9321 52.2513 62.6041 48.2963 62.8501 47.9023C63.4181 46.9893 64.1571 46.8513 65.1411 46.5413C68.5961 45.4543 72.1991 44.6863 75.7401 43.9293Z" fill="#FFDC8A"/>
<path d="M50.0681 79.9143C50.1661 82.0443 50.5811 84.1473 51.0931 86.2173C52.3151 91.1593 54.1221 96.0083 56.9711 100.227C57.7521 97.7153 59.7301 95.7963 61.2661 93.6623C64.8951 88.6173 66.1091 82.1053 65.5061 75.9193C64.9031 69.7333 62.6071 63.8243 59.7511 58.3043C59.8401 58.4763 57.2821 58.4453 57.2091 58.4793C56.5371 58.7923 56.2601 59.7263 55.9331 60.3473C54.8531 62.4033 53.8191 64.4903 52.9151 66.6293C51.1431 70.8263 49.8571 75.3173 50.0681 79.9143Z" fill="#FFDC8A"/>
<path d="M26.383 17.7673C32.428 19.8053 37.595 23.8323 42.275 28.1683C47.218 32.7473 51.765 37.7533 55.85 43.1123C54.516 43.7583 53.352 44.7533 52.507 45.9713C49.004 44.7873 45.501 43.6033 41.998 42.4193C40.027 41.7533 38.049 41.0833 36.198 40.1353C30.081 37.0003 25.903 31.1433 22.019 25.4723C21.192 24.2653 20.341 23.0293 19.143 22.1903C18.219 21.5443 17.135 21.1683 16.056 20.8393C13.218 19.9733 10.119 19.3793 7.32202 20.3703C12.441 15.8463 20.143 15.6623 26.383 17.7673Z" fill="#FFDC8A"/>
<path d="M39.14 63.8203C36.847 66.4483 35.042 69.4673 32.807 72.1443C28.048 77.8443 21.231 82.1923 18.75 89.1913C22.75 84.0933 29.538 82.3383 35.344 79.4613C38.921 77.6883 42.227 75.4103 45.36 72.9363C50.107 69.1893 54.741 64.5153 55.669 58.5393C55.714 58.2473 55.746 57.9293 55.597 57.6733C55.103 56.8213 52.636 55.6343 51.615 55.5953C50.144 55.5403 48.298 56.7643 47.054 57.4503C44.073 59.0943 41.379 61.2563 39.14 63.8203Z" fill="#FFDC8A"/>
<path d="M67.0761 64.4184C68.1591 65.4044 69.3411 66.2974 70.2661 67.4334C71.6551 69.1394 72.3751 71.2823 72.9751 73.3973C74.9081 80.2103 75.8851 87.2923 75.8711 94.3743C69.5421 92.8363 64.7801 87.2954 62.5261 81.1854C60.2721 75.0754 60.1391 68.4093 60.2411 61.8973C60.2721 59.9193 61.3751 58.4054 63.1731 59.8814C64.6351 61.0814 65.6301 63.1004 67.0761 64.4184Z" fill="#FFDC8A"/>
<path d="M18.2691 48.6363C15.8281 49.4253 13.3831 50.2843 11.2011 51.6343C7.9761 53.6313 5.42209 56.6933 4.03809 60.2253C7.68209 57.6393 12.2971 56.7953 16.7641 56.7093C21.2311 56.6233 25.6881 57.2243 30.1561 57.2153C37.6431 57.1993 45.1201 55.4393 51.8281 52.1143C51.2011 50.6153 50.7791 49.0303 50.5771 47.4173C50.5681 47.3473 51.2471 46.7453 51.3151 46.6283C46.8381 44.1233 39.8281 44.4483 34.8981 44.9203C29.2311 45.4633 23.6761 46.8883 18.2691 48.6363Z" fill="#FFDC8A"/>
<path d="M58.917 59.2083C58.544 62.3013 58.1531 65.3823 57.8361 68.4693C57.5301 71.5573 57.2371 74.6433 57.0321 77.7373C56.8041 80.8293 56.6631 83.9263 56.5351 87.0263C56.4731 88.5773 56.4341 90.1283 56.4071 91.6813L56.309 96.3473C56.128 94.7993 56.0301 93.2453 55.9161 91.6893C55.8441 90.1333 55.7961 88.5753 55.7651 87.0163C55.7121 83.8983 55.8271 80.7783 56.0341 77.6663C56.2651 74.5563 56.5861 71.4513 57.0751 68.3703C57.5541 65.2913 58.138 62.2263 58.917 59.2083Z" fill="#9C8067"/>
<path d="M6.03516 58.0093C7.47916 56.6723 9.20415 55.6503 11.0112 54.8413C12.8342 54.0573 14.7581 53.5293 16.7041 53.1533C20.6121 52.4163 24.5822 52.4393 28.4872 52.3033C32.3962 52.2683 36.2832 51.9553 40.1572 51.4483C42.0942 51.2003 44.0231 50.8843 45.9431 50.5103C47.8701 50.1683 49.7792 49.7273 51.6922 49.2843C49.8422 49.9453 47.9501 50.4823 46.0491 50.9883C44.1401 51.4623 42.2122 51.8663 40.2722 52.2093C36.3902 52.8793 32.4431 53.1883 28.5101 53.3023C24.5831 53.3543 20.6731 53.3483 16.8311 53.9083C14.9131 54.1853 13.0122 54.6193 11.1922 55.2943C9.35815 55.9373 7.61916 56.8493 6.03516 58.0093Z" fill="#9C8067"/>
<path d="M10.4683 20.2193C14.6343 18.6413 19.4093 18.6073 23.6803 20.1313C25.8373 20.8603 27.7853 22.0643 29.6193 23.3443C31.4523 24.6423 33.1883 26.0263 34.9403 27.4003C38.3873 30.2163 41.7963 33.0813 45.0723 36.0943C46.7053 37.6053 48.3223 39.1343 49.9153 40.6863C51.4853 42.2623 53.0603 43.8333 54.5683 45.4673L49.5803 41.0443C47.9223 39.5673 46.2513 38.1073 44.5613 36.6693C41.1893 33.7853 37.7993 30.9243 34.3153 28.1793C30.8533 25.4233 27.4793 22.4533 23.4123 20.8483C21.3903 20.0383 19.2183 19.5863 17.0253 19.4953C14.8313 19.3683 12.6143 19.6343 10.4683 20.2193Z" fill="#9C8067"/>
<path d="M74.8912 5.39929C73.0142 8.25429 71.2222 11.1503 69.5892 14.1303C67.9662 17.1153 66.4492 20.1533 65.1092 23.2713C63.7482 26.3793 62.5642 29.5623 61.4922 32.7863L60.7222 35.2173L60.0212 37.6703L59.3502 40.1363C59.1552 40.9653 58.9482 41.7933 58.7322 42.6213C58.9302 40.9233 59.2332 39.2403 59.5442 37.5563L60.1122 35.0523L60.7552 32.5643C61.6622 29.2583 62.8352 26.0253 64.1912 22.8743C65.5682 19.7323 67.1282 16.6683 68.9252 13.7473C70.7132 10.8213 72.6832 8.00929 74.8912 5.39929Z" fill="#9C8067"/>
<path d="M63.8223 44.9033C66.4963 43.5763 69.1723 42.2793 71.8193 40.9253C74.4613 39.5623 77.0983 38.1983 79.6993 36.7643C82.3113 35.3513 84.8843 33.8693 87.4593 32.3843C88.7463 31.6403 90.0223 30.8773 91.2943 30.1063L95.1303 27.8093C93.9703 28.7503 92.7633 29.6253 91.5633 30.5163C90.3423 31.3733 89.1063 32.2113 87.8633 33.0393C85.3713 34.6863 82.7943 36.2013 80.1773 37.6423C77.5493 39.0633 74.8823 40.4123 72.1483 41.6173C69.4213 42.8313 66.6543 43.9563 63.8223 44.9033Z" fill="#9C8067"/>
<path d="M65.1272 55.9183C66.6252 57.2353 68.1362 58.5273 69.7222 59.7223C71.2872 60.9413 72.9002 62.0963 74.5712 63.1593C77.8992 65.3003 81.3722 67.2213 85.0212 68.7423C88.6372 70.3343 92.3942 71.6413 96.2782 72.2623C100.139 72.8803 104.232 72.6833 107.832 70.8983C106.143 71.9663 104.199 72.6193 102.214 72.9703C100.216 73.2663 98.1792 73.2453 96.1742 73.0243C92.1542 72.5443 88.3172 71.2003 84.6252 69.6593C80.9552 68.0383 77.4212 66.0993 74.1422 63.7933C70.8622 61.4953 67.8242 58.8563 65.1272 55.9183Z" fill="#9C8067"/>
<path d="M60.7632 60.2843C62.4812 62.4153 64.0072 64.6973 65.4042 67.0553C66.8122 69.4093 68.0382 71.8703 69.1422 74.3823C70.2242 76.9043 71.1842 79.4803 71.9422 82.1163C72.3142 83.4363 72.6632 84.7613 72.9782 86.0933C73.2502 87.4373 73.5282 88.7763 73.7152 90.1323C73.5082 89.4793 73.3102 88.8263 73.1242 88.1703L72.5052 86.2213C72.0962 84.9233 71.6682 83.6323 71.2102 82.3533C70.2872 79.7983 69.3152 77.2643 68.2252 74.7803C67.1572 72.2863 65.9692 69.8463 64.7342 67.4263C63.4882 65.0123 62.1402 62.6483 60.7632 60.2843Z" fill="#9C8067"/>
<path d="M66.9622 49.2283C70.0072 49.3253 73.0412 49.3843 76.0702 49.3153C79.0982 49.2353 82.1212 49.0903 85.1332 48.8033C88.1472 48.5403 91.1462 48.1363 94.1392 47.6663C95.6352 47.4263 97.1262 47.1543 98.6142 46.8573L100.849 46.4143C101.589 46.2443 102.333 46.0863 103.081 45.9353C101.65 46.4603 100.189 46.8953 98.7272 47.3343C97.2542 47.7293 95.7712 48.0883 94.2802 48.4223C91.2962 49.0753 88.2652 49.5103 85.2232 49.7983C82.1792 50.0633 79.1192 50.1833 76.0662 50.0803C73.0152 49.9893 69.9682 49.7353 66.9622 49.2283Z" fill="#9C8067"/>
<path d="M27.1912 80.0753C29.8232 78.6083 31.9772 76.5243 33.8512 74.2203C35.7352 71.9223 37.4712 69.4743 39.4392 67.1713C40.4372 66.0323 41.5032 64.9373 42.6632 63.9403C43.8382 62.9623 45.0902 62.0813 46.4242 61.3513C47.7482 60.6063 49.1262 59.9733 50.5282 59.4153C51.9432 58.8903 53.3742 58.4183 54.8332 58.0563C52.0532 59.1883 49.3192 60.4173 46.8202 62.0113C44.3002 63.5813 42.1192 65.5663 40.1962 67.8253C38.2482 70.0643 36.4872 72.5023 34.4282 74.7243C33.4012 75.8333 32.3202 76.9053 31.1162 77.8313C29.8982 78.7363 28.5972 79.5373 27.1912 80.0753Z" fill="#9C8067"/>
<path d="M46.7532 7.1123C46.7702 10.2943 47.1312 13.4373 47.7672 16.5253C48.4242 19.6093 49.2702 22.6493 50.2362 25.6613L53.1822 34.7063L54.6103 39.2523C55.0513 40.7793 55.5253 42.2953 55.9383 43.8323C55.3113 42.3693 54.7453 40.8853 54.1473 39.4123L52.4553 34.9583C51.3343 31.9883 50.2583 28.9983 49.2833 25.9633C48.3343 22.9223 47.4982 19.8273 47.0132 16.6613C46.7812 15.0773 46.6172 13.4853 46.5422 11.8893C46.5192 10.2893 46.5552 8.6913 46.7532 7.1123Z" fill="#9C8067"/>
<path d="M50.0942 49.9574C49.7772 51.5094 49.7152 53.1544 50.2352 54.6514C51.1642 57.3234 53.8202 59.0854 56.5652 59.7674C59.1532 60.4094 62.0652 60.2024 64.2382 58.6574C66.5872 56.9874 67.7322 53.9474 67.5502 51.0714C67.3772 48.3234 66.0182 45.6004 63.7202 44.0834C58.0802 40.3574 51.3692 43.7104 50.0942 49.9574Z" fill="#85AC8F"/>
<path d="M42.0781 119.013C44.3261 119.665 46.3761 120.986 47.8991 122.764C48.8821 123.912 49.6411 125.232 50.3681 126.556C51.5471 128.704 52.6841 130.974 52.7991 133.421" stroke="#85AC8F" stroke-width="3" stroke-miterlimit="10" stroke-linecap="round" stroke-linejoin="round"/>
<path d="M44.382 120.009C43.596 118.403 44.029 116.453 43.486 114.749C43.237 113.97 42.793 113.27 42.345 112.586C40.133 109.205 37.539 105.804 33.814 104.237C30.301 102.759 26.316 103.138 22.535 103.615C21.058 103.801 19.576 103.999 18.145 104.411C16.576 104.862 15.091 105.564 13.54 106.07C10.479 107.069 7.166 107.288 4 106.702C2.535 106.431 1.034 105.95 0 104.876C1.481 108.136 4.764 109.851 8.144 111.031C11.524 112.211 15.123 112.866 18.25 114.609C19.776 115.459 21.154 116.55 22.643 117.462C26.19 119.635 30.37 120.76 34.528 120.661C37.876 120.582 41.034 119.955 44.382 120.009Z" fill="#85AC8F"/>
<path d="M4.47607 107.739C4.77207 108.074 5.19807 108.22 5.61107 108.355C6.02807 108.492 6.43807 108.64 6.86407 108.743C7.70407 108.982 8.56608 109.13 9.42708 109.255C11.1511 109.503 12.8951 109.59 14.6461 109.603C16.3971 109.612 18.1561 109.62 19.9281 109.679C21.7001 109.741 23.4781 109.941 25.2311 110.242C28.7371 110.866 32.1521 111.994 35.3291 113.58C38.5111 115.156 41.4591 117.19 44.0121 119.619C42.5971 118.569 41.1581 117.566 39.6431 116.689C38.1471 115.785 36.6011 114.968 35.0011 114.276C31.8101 112.884 28.4791 111.813 25.0551 111.225C21.6411 110.56 18.1481 110.571 14.6171 110.367C12.8551 110.26 11.0821 110.088 9.34108 109.734C8.47508 109.532 7.61407 109.307 6.78407 108.993C6.36407 108.852 5.96008 108.668 5.55408 108.493C5.16008 108.314 4.73207 108.107 4.47607 107.739Z" fill="#EFE8CE"/>
</svg>
