<svg width="136" height="183" viewBox="0 0 136 183" fill="none" xmlns="http://www.w3.org/2000/svg">
<path d="M60.2751 59.0803C66.0551 77.6023 65.6341 98.0023 59.0961 116.27C57.1391 121.738 54.6521 127.02 53.0111 132.591C51.4031 138.051 50.6251 143.742 50.5201 149.433C50.4241 154.645 50.9131 159.968 52.9671 164.76C56.0301 171.905 62.3421 177.251 69.2811 180.757" stroke="#85AC8F" stroke-width="3" stroke-miterlimit="10" stroke-linecap="round" stroke-linejoin="round"/>
<path d="M133.469 67.7714C134.587 68.1204 135.974 68.9304 135.64 70.0524C129.785 68.6044 123.19 70.7574 119.317 75.3814C117.547 77.4954 116.304 80.0704 114.207 81.8604C112.46 83.3504 110.212 84.2104 108.624 85.8674C106.212 88.3844 105.76 92.2544 103.56 94.9594C101.045 98.0504 96.8231 99.0124 93.3001 100.875C84.5711 105.492 80.3051 115.566 72.8971 122.096C70.7591 123.98 68.3521 125.573 66.4281 127.676C64.5311 129.75 63.1681 132.249 61.9011 134.758C57.9611 142.558 54.7491 150.725 52.3211 159.119C51.7171 159.133 51.1121 159.147 50.5081 159.161C54.2021 146.033 59.2471 133.33 64.2821 120.655C65.5731 117.404 66.8741 114.135 68.7021 111.153C70.8041 107.724 73.5631 104.742 75.7661 101.377C79.3561 95.8944 81.5371 89.3224 86.4501 84.9844C88.5161 83.1594 90.9991 81.8014 92.8211 79.7324C94.3081 78.0424 95.3041 75.9294 96.9851 74.4314C98.3891 73.1794 100.17 72.4494 101.913 71.7414C106.302 69.9594 110.69 68.1774 115.079 66.3954C117.014 65.6094 118.995 64.8134 121.081 64.7094C123.27 64.6004 125.417 65.2604 127.51 65.9124C129.496 66.5324 131.483 67.1524 133.469 67.7714Z" fill="#85AC8F"/>
<path d="M64.937 125.631C68.214 119.407 71.949 113.421 76.027 107.678C80.101 101.929 84.595 96.4824 89.343 91.2744C94.147 86.1324 99.205 81.1454 104.979 77.0474C107.874 75.0204 110.933 73.2134 114.165 71.7804C117.405 70.3784 120.807 69.3224 124.295 68.8464C117.377 70.2244 111.035 73.5264 105.43 77.6704C99.818 81.8474 94.805 86.7784 90.078 91.9514C85.294 97.0764 80.836 102.501 76.647 108.128C72.455 113.755 68.572 119.612 64.937 125.631Z" fill="#EFE8CE"/>
<path d="M66.59 7.32733C61.341 12.3223 57.707 18.9873 56.352 26.1053C54.997 33.2233 55.928 40.7583 58.975 47.3323C67.285 41.2293 73.39 32.1873 75.945 22.1993C77.038 17.9283 77.497 13.5253 77.953 9.14033C78.144 7.30133 78.337 5.44833 78.279 3.59733C78.224 1.83033 78.473 -0.587667 76.305 0.129333C72.968 1.23333 69.098 4.94133 66.59 7.32733Z" fill="#FFDC8A"/>
<path d="M89.48 26.2524C92.543 24.9664 95.709 23.8764 98.988 23.3484C101.329 22.9714 103.789 22.8604 105.876 21.7344C102.578 29.8684 94.798 35.3684 86.706 38.7674C82.465 40.5494 78.055 41.8754 73.658 43.2084C71.427 43.8854 69.195 44.5594 66.984 45.2994C65.393 45.8324 63.286 47.0874 61.635 47.0664C61.653 45.5214 64.002 43.6894 65.044 42.6464C67.382 40.3044 69.888 38.1234 72.514 36.1094C77.718 32.1184 83.432 28.7914 89.48 26.2524Z" fill="#FFDC8A"/>
<path d="M91.0691 76.1303C94.6201 76.7903 98.3301 77.0753 101.807 76.1003C105.284 75.1253 108.509 72.7073 109.703 69.2993C104.683 71.6353 98.6491 70.4823 93.7191 67.9623C88.7891 65.4423 84.6181 61.6893 80.0861 58.5073C75.5541 55.3253 70.3491 52.6293 64.8131 52.7223C64.9931 52.7193 62.9461 56.9973 62.8551 57.3363C62.4511 58.8353 63.0001 59.6683 63.9361 60.8423C66.0851 63.5373 68.8101 65.8833 71.5961 67.8893C77.3621 72.0403 84.0911 74.8333 91.0691 76.1303Z" fill="#FFDC8A"/>
<path d="M44.3901 9.85543C41.0601 15.7814 41.9411 23.3504 44.9621 29.4394C47.9831 35.5284 52.8711 40.4534 57.6741 45.2634C54.2731 36.0894 55.2191 25.8264 52.4291 16.4494C52.0211 15.0764 51.5221 13.7054 50.6731 12.5524C50.2001 11.9104 49.6251 11.3444 49.1921 10.6744C48.1001 8.98543 48.9061 5.95343 47.7001 4.71143C46.4581 5.93743 45.2881 8.25643 44.3901 9.85543Z" fill="#FFDC8A"/>
<path d="M75.7401 43.9293C79.4021 43.1473 83.1011 42.4823 86.8401 42.2833C93.8181 41.9123 100.854 43.1683 107.781 42.2503C102.168 48.1223 94.4171 51.6913 86.4191 53.1123C78.4211 54.5333 70.1691 53.9163 62.2061 52.3063C61.9321 52.2513 62.6041 48.2963 62.8501 47.9023C63.4181 46.9893 64.1571 46.8513 65.1411 46.5413C68.5961 45.4543 72.1991 44.6863 75.7401 43.9293Z" fill="#FFDC8A"/>
<path d="M50.0681 79.9144C50.1661 82.0444 50.5811 84.1474 51.0931 86.2174C52.3151 91.1594 54.1221 96.0084 56.9711 100.227C57.7521 97.7154 59.7301 95.7964 61.2661 93.6624C64.8951 88.6174 66.1091 82.1054 65.5061 75.9194C64.9031 69.7334 62.6071 63.8244 59.7511 58.3044C59.8401 58.4764 57.2821 58.4454 57.2091 58.4794C56.5371 58.7924 56.2601 59.7264 55.9331 60.3474C54.8531 62.4034 53.8191 64.4904 52.9151 66.6294C51.1431 70.8264 49.8571 75.3174 50.0681 79.9144Z" fill="#FFDC8A"/>
<path d="M26.383 17.7674C32.428 19.8054 37.595 23.8324 42.275 28.1684C47.218 32.7474 51.765 37.7534 55.85 43.1124C54.516 43.7584 53.352 44.7534 52.507 45.9714C49.004 44.7874 45.501 43.6034 41.998 42.4194C40.027 41.7534 38.049 41.0834 36.198 40.1354C30.081 37.0004 25.903 31.1434 22.019 25.4724C21.192 24.2654 20.341 23.0294 19.143 22.1904C18.219 21.5444 17.135 21.1684 16.056 20.8394C13.218 19.9734 10.119 19.3794 7.32202 20.3704C12.441 15.8464 20.143 15.6624 26.383 17.7674Z" fill="#FFDC8A"/>
<path d="M39.14 63.8203C36.847 66.4483 35.042 69.4673 32.807 72.1443C28.048 77.8443 21.231 82.1923 18.75 89.1913C22.75 84.0933 29.538 82.3383 35.344 79.4613C38.921 77.6883 42.227 75.4103 45.36 72.9363C50.107 69.1893 54.741 64.5153 55.669 58.5393C55.714 58.2473 55.746 57.9293 55.597 57.6733C55.103 56.8213 52.636 55.6343 51.615 55.5953C50.144 55.5403 48.298 56.7643 47.054 57.4503C44.073 59.0943 41.379 61.2563 39.14 63.8203Z" fill="#FFDC8A"/>
<path d="M67.0761 64.4184C68.1591 65.4044 69.3411 66.2974 70.2661 67.4334C71.6551 69.1394 72.3751 71.2823 72.9751 73.3973C74.9081 80.2103 75.8851 87.2923 75.8711 94.3743C69.5421 92.8363 64.7801 87.2954 62.5261 81.1854C60.2721 75.0754 60.1391 68.4093 60.2411 61.8973C60.2721 59.9193 61.3751 58.4054 63.1731 59.8814C64.6351 61.0814 65.6301 63.1004 67.0761 64.4184Z" fill="#FFDC8A"/>
<path d="M18.2691 48.6364C15.8281 49.4254 13.3831 50.2844 11.2011 51.6344C7.9761 53.6314 5.42209 56.6934 4.03809 60.2254C7.68209 57.6394 12.2971 56.7954 16.7641 56.7094C21.2311 56.6234 25.6881 57.2244 30.1561 57.2154C37.6431 57.1994 45.1201 55.4394 51.8281 52.1144C51.2011 50.6154 50.7791 49.0304 50.5771 47.4174C50.5681 47.3474 51.2471 46.7454 51.3151 46.6284C46.8381 44.1234 39.8281 44.4484 34.8981 44.9204C29.2311 45.4634 23.6761 46.8884 18.2691 48.6364Z" fill="#FFDC8A"/>
<path d="M58.917 59.2085C58.544 62.3015 58.1531 65.3825 57.8361 68.4695C57.5301 71.5575 57.2371 74.6435 57.0321 77.7375C56.8041 80.8295 56.6631 83.9265 56.5351 87.0265C56.4731 88.5775 56.4341 90.1285 56.4071 91.6815L56.309 96.3475C56.128 94.7995 56.0301 93.2455 55.9161 91.6895C55.8441 90.1335 55.7961 88.5755 55.7651 87.0165C55.7121 83.8985 55.8271 80.7785 56.0341 77.6665C56.2651 74.5565 56.5861 71.4515 57.0751 68.3705C57.5541 65.2915 58.138 62.2265 58.917 59.2085Z" fill="#9C8067"/>
<path d="M6.03516 58.0094C7.47916 56.6724 9.20415 55.6504 11.0112 54.8414C12.8342 54.0574 14.7581 53.5294 16.7041 53.1534C20.6121 52.4164 24.5822 52.4394 28.4872 52.3034C32.3962 52.2684 36.2831 51.9554 40.1572 51.4484C42.0942 51.2004 44.0231 50.8844 45.9431 50.5104C47.8701 50.1684 49.7792 49.7274 51.6922 49.2844C49.8422 49.9454 47.9501 50.4824 46.0491 50.9884C44.1401 51.4624 42.2122 51.8664 40.2722 52.2094C36.3902 52.8794 32.4431 53.1884 28.5101 53.3024C24.5831 53.3544 20.6731 53.3484 16.8311 53.9084C14.9131 54.1854 13.0122 54.6194 11.1922 55.2944C9.35815 55.9374 7.61916 56.8494 6.03516 58.0094Z" fill="#9C8067"/>
<path d="M10.4683 20.2194C14.6343 18.6414 19.4093 18.6074 23.6803 20.1314C25.8373 20.8604 27.7853 22.0644 29.6193 23.3444C31.4523 24.6424 33.1883 26.0264 34.9403 27.4004C38.3873 30.2164 41.7962 33.0814 45.0723 36.0944C46.7052 37.6054 48.3223 39.1344 49.9153 40.6864C51.4853 42.2624 53.0603 43.8334 54.5683 45.4674L49.5803 41.0444C47.9223 39.5674 46.2513 38.1074 44.5613 36.6694C41.1893 33.7854 37.7993 30.9244 34.3153 28.1794C30.8533 25.4234 27.4793 22.4534 23.4123 20.8484C21.3903 20.0384 19.2183 19.5864 17.0253 19.4954C14.8313 19.3684 12.6143 19.6344 10.4683 20.2194Z" fill="#9C8067"/>
<path d="M74.8912 5.39941C73.0142 8.25441 71.2222 11.1504 69.5892 14.1304C67.9662 17.1154 66.4492 20.1534 65.1092 23.2714C63.7482 26.3794 62.5642 29.5624 61.4922 32.7864L60.7222 35.2174L60.0212 37.6704L59.3502 40.1364C59.1552 40.9654 58.9482 41.7934 58.7322 42.6214C58.9302 40.9234 59.2332 39.2404 59.5442 37.5564L60.1122 35.0524L60.7552 32.5644C61.6622 29.2584 62.8352 26.0254 64.1912 22.8744C65.5682 19.7324 67.1282 16.6684 68.9252 13.7474C70.7132 10.8214 72.6832 8.00941 74.8912 5.39941Z" fill="#9C8067"/>
<path d="M63.822 44.9033C66.496 43.5763 69.172 42.2793 71.819 40.9253C74.461 39.5623 77.098 38.1983 79.699 36.7643C82.311 35.3513 84.884 33.8693 87.459 32.3843C88.746 31.6403 90.022 30.8773 91.294 30.1063L95.13 27.8093C93.97 28.7503 92.763 29.6253 91.563 30.5163C90.342 31.3733 89.106 32.2113 87.863 33.0393C85.371 34.6863 82.794 36.2013 80.177 37.6423C77.549 39.0633 74.882 40.4123 72.148 41.6173C69.421 42.8313 66.654 43.9563 63.822 44.9033Z" fill="#9C8067"/>
<path d="M65.1272 55.9185C66.6252 57.2355 68.1362 58.5275 69.7222 59.7225C71.2872 60.9415 72.9002 62.0965 74.5712 63.1595C77.8992 65.3005 81.3722 67.2214 85.0212 68.7424C88.6372 70.3344 92.3942 71.6415 96.2782 72.2625C100.139 72.8805 104.232 72.6835 107.832 70.8985C106.143 71.9665 104.199 72.6195 102.214 72.9705C100.216 73.2665 98.1792 73.2455 96.1742 73.0245C92.1542 72.5445 88.3172 71.2005 84.6252 69.6595C80.9552 68.0385 77.4212 66.0995 74.1422 63.7935C70.8622 61.4955 67.8242 58.8565 65.1272 55.9185Z" fill="#9C8067"/>
<path d="M60.7632 60.2844C62.4812 62.4154 64.0072 64.6974 65.4042 67.0554C66.8122 69.4094 68.0382 71.8704 69.1422 74.3824C70.2242 76.9044 71.1842 79.4804 71.9422 82.1164C72.3142 83.4364 72.6632 84.7614 72.9782 86.0934C73.2502 87.4374 73.5282 88.7764 73.7152 90.1324C73.5082 89.4794 73.3102 88.8264 73.1242 88.1704L72.5052 86.2214C72.0962 84.9234 71.6682 83.6324 71.2102 82.3534C70.2872 79.7984 69.3152 77.2644 68.2252 74.7804C67.1572 72.2864 65.9692 69.8464 64.7342 67.4264C63.4882 65.0124 62.1402 62.6484 60.7632 60.2844Z" fill="#9C8067"/>
<path d="M66.9622 49.2283C70.0072 49.3253 73.0412 49.3843 76.0702 49.3153C79.0982 49.2353 82.1212 49.0903 85.1332 48.8033C88.1472 48.5403 91.1462 48.1363 94.1392 47.6663C95.6352 47.4263 97.1262 47.1543 98.6142 46.8573L100.849 46.4143C101.589 46.2443 102.333 46.0863 103.081 45.9353C101.65 46.4603 100.189 46.8953 98.7272 47.3343C97.2542 47.7293 95.7712 48.0883 94.2802 48.4223C91.2962 49.0753 88.2652 49.5103 85.2232 49.7983C82.1792 50.0633 79.1192 50.1833 76.0662 50.0803C73.0152 49.9893 69.9682 49.7353 66.9622 49.2283Z" fill="#9C8067"/>
<path d="M27.1912 80.0754C29.8232 78.6084 31.9772 76.5244 33.8512 74.2204C35.7352 71.9224 37.4712 69.4744 39.4392 67.1714C40.4372 66.0324 41.5032 64.9374 42.6632 63.9404C43.8382 62.9624 45.0902 62.0814 46.4242 61.3514C47.7482 60.6064 49.1262 59.9734 50.5282 59.4154C51.9432 58.8904 53.3742 58.4184 54.8332 58.0564C52.0532 59.1884 49.3192 60.4174 46.8202 62.0114C44.3002 63.5814 42.1192 65.5664 40.1962 67.8254C38.2482 70.0644 36.4872 72.5024 34.4282 74.7244C33.4012 75.8334 32.3202 76.9054 31.1162 77.8314C29.8982 78.7364 28.5972 79.5374 27.1912 80.0754Z" fill="#9C8067"/>
<path d="M46.7532 7.1123C46.7702 10.2943 47.1312 13.4373 47.7672 16.5253C48.4242 19.6093 49.2702 22.6493 50.2362 25.6613L53.1822 34.7063L54.6103 39.2523C55.0513 40.7793 55.5253 42.2953 55.9383 43.8323C55.3113 42.3693 54.7453 40.8853 54.1473 39.4123L52.4553 34.9583C51.3343 31.9883 50.2583 28.9983 49.2833 25.9633C48.3343 22.9223 47.4982 19.8273 47.0132 16.6613C46.7812 15.0773 46.6172 13.4853 46.5422 11.8893C46.5192 10.2893 46.5552 8.6913 46.7532 7.1123Z" fill="#9C8067"/>
<path d="M50.0942 49.9574C49.7772 51.5094 49.7152 53.1544 50.2352 54.6514C51.1642 57.3234 53.8202 59.0854 56.5652 59.7674C59.1532 60.4094 62.0652 60.2024 64.2382 58.6574C66.5872 56.9874 67.7322 53.9474 67.5502 51.0714C67.3772 48.3234 66.0182 45.6004 63.7202 44.0834C58.0802 40.3574 51.3692 43.7104 50.0942 49.9574Z" fill="#85AC8F"/>
<path d="M42.0779 119.013C44.3259 119.665 46.3759 120.986 47.8989 122.764C48.8819 123.912 49.6409 125.232 50.3679 126.556C51.5469 128.704 52.6839 130.974 52.7989 133.421" stroke="#85AC8F" stroke-width="3" stroke-miterlimit="10" stroke-linecap="round" stroke-linejoin="round"/>
<path d="M44.382 120.009C43.596 118.403 44.029 116.453 43.486 114.749C43.237 113.97 42.793 113.27 42.345 112.586C40.133 109.205 37.539 105.804 33.814 104.237C30.301 102.759 26.316 103.138 22.535 103.615C21.058 103.801 19.576 103.999 18.145 104.411C16.576 104.862 15.091 105.564 13.54 106.07C10.479 107.069 7.166 107.288 4 106.702C2.535 106.431 1.034 105.95 0 104.876C1.481 108.136 4.764 109.851 8.144 111.031C11.524 112.211 15.123 112.866 18.25 114.609C19.776 115.459 21.154 116.55 22.643 117.462C26.19 119.635 30.37 120.76 34.528 120.661C37.876 120.582 41.034 119.955 44.382 120.009Z" fill="#85AC8F"/>
<path d="M4.47607 107.74C4.77207 108.075 5.19807 108.22 5.61107 108.355C6.02807 108.492 6.43807 108.64 6.86407 108.743C7.70407 108.982 8.56608 109.13 9.42708 109.255C11.1511 109.503 12.8951 109.591 14.6461 109.604C16.3971 109.613 18.1561 109.621 19.9281 109.68C21.7001 109.742 23.4781 109.941 25.2311 110.242C28.7371 110.866 32.1521 111.995 35.3291 113.581C38.5111 115.157 41.4591 117.19 44.0121 119.619C42.5971 118.569 41.1581 117.566 39.6431 116.689C38.1471 115.785 36.6011 114.969 35.0011 114.277C31.8101 112.885 28.4791 111.813 25.0551 111.225C21.6411 110.56 18.1481 110.571 14.6171 110.367C12.8551 110.26 11.0821 110.088 9.34108 109.734C8.47508 109.532 7.61407 109.307 6.78407 108.993C6.36407 108.852 5.96008 108.668 5.55408 108.493C5.16008 108.314 4.73207 108.108 4.47607 107.74Z" fill="#EFE8CE"/>
</svg>
