<svg width="71" height="99" viewBox="0 0 71 99" fill="none" xmlns="http://www.w3.org/2000/svg">
<path d="M30.5071 20.2864C33.6061 28.3144 36.7241 36.4154 38.0771 44.9124C38.7361 49.0524 38.9691 53.2474 39.1281 57.4364C39.6611 71.4864 39.2501 86.1004 33.0861 98.7384" stroke="#85AC8F" stroke-width="1.1966" stroke-miterlimit="10"/>
<path d="M39.185 69.7574C36.216 63.6774 30.567 58.9684 24.052 57.1414" stroke="#85AC8F" stroke-width="1.1966" stroke-miterlimit="10"/>
<path d="M38.651 50.8774C35.857 43.5014 29.973 37.3514 22.728 34.2344" stroke="#85AC8F" stroke-width="1.1966" stroke-miterlimit="10"/>
<path d="M44.848 24.5054C41.208 31.0944 38.914 38.4234 38.146 45.9114" stroke="#85AC8F" stroke-width="1.1966" stroke-miterlimit="10"/>
<path d="M51.4271 49.9253C44.7881 54.8323 40.2941 62.5443 39.2991 70.7403" stroke="#85AC8F" stroke-width="1.1966" stroke-miterlimit="10"/>
<path d="M16.423 22.7045C14.941 20.9235 13.289 19.1515 11.119 18.3425C8.94903 17.5325 6.13605 17.9965 4.91405 19.9645C4.45505 20.7045 4.25104 21.5885 3.74104 22.2935C2.83504 23.5445 1.09904 24.0515 0.352036 25.4045C-0.223964 26.4465 -0.0489473 27.7855 0.557053 28.8105C1.16305 29.8355 2.13905 30.5885 3.16405 31.1945C5.97505 32.8585 9.23804 33.5725 12.464 34.0875C14.764 34.4545 17.079 34.7336 19.401 34.9226C21.664 35.1075 24.1751 36.0405 23.0021 33.1045C21.4731 29.2815 19.042 25.8515 16.423 22.7045Z" fill="#D9B492"/>
<path d="M22.637 34.2695C20.466 32.9375 18.547 31.3575 16.538 29.9445C14.543 28.5005 12.494 27.2295 10.217 26.1045C12.775 26.3155 15.171 27.5095 17.233 28.9725C19.294 30.4725 21.104 32.2445 22.637 34.2695Z" fill="#EFE8CE"/>
<path d="M31.5691 10.6065C31.5841 8.83947 31.5991 7.06248 31.3121 5.31848C31.0621 3.79848 30.5461 2.25548 29.4491 1.17547C28.3521 0.0944749 26.5631 -0.389516 25.2211 0.366484C24.6581 0.683484 24.2141 1.18447 23.6411 1.48147C21.7141 2.47947 19.2991 0.829466 17.2391 1.51047C15.7171 2.01347 14.8421 3.71746 14.8581 5.32046C14.8741 6.92346 15.6051 8.42848 16.4381 9.79748C18.9081 13.8565 22.4561 17.2405 26.5931 19.5685C28.3391 20.5515 30.9771 22.6075 31.4901 19.8365C32.0211 16.9675 31.5441 13.5315 31.5691 10.6065Z" fill="#D9B492"/>
<path d="M30.084 20.4544C29.394 18.2734 28.621 16.2574 27.55 14.3644C26.503 12.4584 25.197 10.7404 23.708 9.00244C25.792 9.99144 27.458 11.7654 28.595 13.7824C29.709 15.8124 30.339 18.1624 30.084 20.4544Z" fill="#EFE8CE"/>
<path d="M44.348 12.2205C44.559 10.5685 44.851 8.87747 45.725 7.45947C46.599 6.04147 48.186 4.94747 49.842 5.11847C51.306 5.26947 52.557 6.34946 54.025 6.46146C55.194 6.55146 56.351 6.01147 57.515 6.14847C59.811 6.41847 61.008 9.14747 60.887 11.4555C60.679 15.4205 57.968 18.9115 54.642 21.0815C53.04 22.1265 45.643 26.2345 44.104 24.6475C43.243 23.7595 43.82 19.8865 43.85 18.7195C43.906 16.5475 44.072 14.3775 44.348 12.2205Z" fill="#D9B492"/>
<path d="M51.523 14.0154C51.181 16.1094 50.466 18.1034 49.387 19.9504C48.83 20.8594 48.185 21.7324 47.394 22.4704C46.613 23.2114 45.7 23.8304 44.686 24.1724C46.183 22.6664 47.331 21.0794 48.361 19.3354C49.414 17.6154 50.305 15.7634 51.523 14.0154Z" fill="#EFE8CE"/>
<path d="M51.001 40.2786C51.394 38.5236 51.977 36.7405 53.202 35.4245C54.426 34.1075 56.436 33.3806 58.082 34.1036C58.947 34.4836 59.621 35.2076 60.472 35.6166C61.293 36.0116 62.263 36.0885 63.136 35.8285C64.289 35.4845 65.255 34.5875 66.448 34.4355C68.338 34.1945 70.0031 36.0585 70.1441 37.9585C70.2851 39.8585 69.297 41.6656 68.108 43.1546C65.23 46.7576 60.953 49.2125 56.391 49.8795C54.36 50.1765 51.159 51.3516 50.352 48.8996C49.56 46.4946 50.465 42.6696 51.001 40.2786Z" fill="#D9B492"/>
<path d="M59.7332 40.7476C59.3722 42.7686 58.2832 44.6066 56.8892 46.1086C55.4732 47.5896 53.6991 48.7826 51.7021 49.2586C53.2561 47.9386 54.7052 46.7006 56.0192 45.2876C57.3552 43.8956 58.5082 42.3756 59.7332 40.7476Z" fill="#EFE8CE"/>
<path d="M13.3321 46.6535C12.0151 46.0905 10.5811 45.6295 9.16909 45.8685C7.75709 46.1065 6.40809 47.2475 6.38109 48.6795C6.36809 49.3645 6.6471 50.0525 6.5021 50.7215C6.3241 51.5385 5.58109 52.0805 4.97109 52.6525C3.86809 53.6875 3.04807 55.1775 3.28307 56.6725C3.53707 58.2835 4.97407 59.5055 6.53307 59.9875C8.09207 60.4695 9.76409 60.3505 11.3891 60.2075C14.0741 59.9705 25.6871 60.3715 24.5661 56.2075C23.4261 51.9745 17.0331 48.2345 13.3321 46.6535Z" fill="#D9B492"/>
<path d="M23.6751 56.9356C21.4281 57.0126 19.2121 56.4656 17.1491 55.6146C15.0991 54.7316 13.1611 53.5256 11.6501 51.8606C13.7071 52.7476 15.6232 53.6906 17.6142 54.5136C19.5912 55.3676 21.6041 56.0826 23.6751 56.9356Z" fill="#EFE8CE"/>
</svg>
