<svg width="1024" height="128" viewBox="0 0 1024 128" fill="none" xmlns="http://www.w3.org/2000/svg">
<rect width="1024" height="128" fill="#F7F1EC"/>
<g opacity="0.9">
<path d="M818.062 17.2722C814.33 19.5923 810.405 21.9785 806.023 22.3066C802.861 22.5432 799.73 21.6818 796.682 20.8051" stroke="#85AC8F" stroke-miterlimit="10" stroke-linecap="round" stroke-linejoin="round"/>
<path d="M819.32 32.9553C816.396 30.575 813.471 28.1948 810.548 25.8146C808.836 24.4205 807.076 23.0004 804.989 22.2786" stroke="#85AC8F" stroke-miterlimit="10" stroke-linecap="round" stroke-linejoin="round"/>
<path d="M823.995 24.5659C819.304 24.8639 814.528 23.6505 810.548 21.1489" stroke="#85AC8F" stroke-miterlimit="10" stroke-linecap="round" stroke-linejoin="round"/>
<path d="M825.335 21.5598C823.607 22.8373 823.13 25.5231 824.316 27.3166C825.463 29.0532 828.041 29.6919 829.814 28.6013C834.4 25.7808 830.228 17.9457 825.335 21.5598Z" fill="#9C8067"/>
<path d="M818.753 32.3475C817.491 33.4979 817.046 35.4582 817.686 37.0414C818.343 38.6633 820.034 39.7541 821.778 39.8886C822.704 39.9602 823.687 39.7688 824.399 39.1715C825.341 38.3803 825.632 37.0449 825.605 35.8146C825.525 32.266 821.78 29.5903 818.753 32.3475Z" fill="#9C8067"/>
<path d="M817.623 17.3197C820.69 22.2894 826.381 17.5212 823.842 12.8648C821.17 7.96906 814.958 13.0006 817.623 17.3197Z" fill="#9C8067"/>
</g>
<g opacity="0.9">
<path d="M27.2265 71.2786C29.6214 67.5936 32.1626 63.7685 35.9914 61.6114C38.7549 60.0547 41.9557 59.5067 45.0875 59.007" stroke="#85AC8F" stroke-miterlimit="10" stroke-linecap="round" stroke-linejoin="round"/>
<path d="M19.4329 57.6111C23.0906 58.5254 26.7476 59.4405 30.4053 60.3548C32.547 60.8904 34.7427 61.4303 36.9391 61.1984" stroke="#85AC8F" stroke-miterlimit="10" stroke-linecap="round" stroke-linejoin="round"/>
<path d="M18.7595 67.1912C22.881 64.9303 27.7203 64.0033 32.3856 64.5801" stroke="#85AC8F" stroke-miterlimit="10" stroke-linecap="round" stroke-linejoin="round"/>
<path d="M18.8209 70.4828C19.8442 68.5932 19.1354 65.958 17.3014 64.837C15.5254 63.7518 12.9204 64.2671 11.7781 66.0066C8.82127 70.507 15.9247 75.8305 18.8209 70.4828Z" fill="#FFDC8A"/>
<path d="M20.2039 57.9205C20.859 56.3425 20.4311 54.3788 19.1785 53.2174C17.8954 52.0271 15.9022 51.757 14.2649 52.3752C13.3963 52.7033 12.5875 53.2937 12.1962 54.1363C11.6783 55.2525 11.9818 56.5861 12.5289 57.6883C14.106 60.8684 18.6347 61.7017 20.2039 57.9205Z" fill="#FFDC8A"/>
<path d="M27.6031 71.0485C22.7175 67.8498 19.5873 74.5827 23.8629 77.7205C28.3594 81.021 31.8493 73.8289 27.6031 71.0485Z" fill="#FFDC8A"/>
</g>
<g opacity="0.9">
<path d="M697.275 69.2073C699.804 65.6134 702.485 61.8833 706.39 59.869C709.209 58.4157 712.427 57.9852 715.576 57.6012" stroke="#85AC8F" stroke-miterlimit="10" stroke-linecap="round" stroke-linejoin="round"/>
<path d="M689.99 55.2625C693.611 56.3112 697.233 57.3595 700.854 58.4081C702.975 59.0225 705.149 59.6422 707.352 59.4912" stroke="#85AC8F" stroke-miterlimit="10" stroke-linecap="round" stroke-linejoin="round"/>
<path d="M688.964 64.8119C693.165 62.7048 698.036 61.9556 702.677 62.7032" stroke="#85AC8F" stroke-miterlimit="10" stroke-linecap="round" stroke-linejoin="round"/>
<path d="M688.905 68.1029C689.997 66.2517 689.386 63.5931 687.594 62.4056C685.859 61.2555 683.236 61.6746 682.031 63.3712C678.911 67.7596 685.813 73.3415 688.905 68.1029Z" fill="#9C8067"/>
<path d="M690.748 55.6009C691.461 54.0487 691.104 52.0704 689.896 50.8633C688.658 49.627 686.676 49.2834 685.017 49.8412C684.137 50.137 683.307 50.6973 682.885 51.5252C682.327 52.6218 682.581 53.9647 683.087 55.0865C684.547 58.3219 689.04 59.3214 690.748 55.6009Z" fill="#9C8067"/>
<path d="M697.66 68.9924C692.896 65.6162 689.52 72.229 693.677 75.5229C698.049 78.9855 701.802 71.9267 697.66 68.9924Z" fill="#9C8067"/>
</g>
<g opacity="0.9">
<path d="M149.881 81.7927C151.055 77.5577 152.327 73.145 155.329 69.9343C157.495 67.6179 160.383 66.1323 163.218 64.7129" stroke="#85AC8F" stroke-miterlimit="10" stroke-linecap="round" stroke-linejoin="round"/>
<path d="M138.334 71.1052C142.097 70.8765 145.861 70.6465 149.624 70.4178C151.828 70.2838 154.084 70.1374 156.108 69.2546" stroke="#85AC8F" stroke-miterlimit="10" stroke-linecap="round" stroke-linejoin="round"/>
<path d="M140.576 80.4436C143.826 77.0469 148.161 74.7065 152.784 73.8508" stroke="#85AC8F" stroke-miterlimit="10" stroke-linecap="round" stroke-linejoin="round"/>
<path d="M141.626 83.5648C142.033 81.454 140.563 79.1559 138.477 78.639C136.457 78.1386 134.128 79.4145 133.562 81.4176C132.098 86.5985 140.474 89.5358 141.626 83.5648Z" fill="#DDB1A2"/>
<path d="M139.162 71.1693C139.312 69.4676 138.312 67.7241 136.768 66.9929C135.186 66.2446 133.203 66.5864 131.829 67.6696C131.1 68.2446 130.506 69.0502 130.387 69.9717C130.229 71.1919 130.921 72.3722 131.774 73.2585C134.236 75.8159 138.804 75.2468 139.162 71.1693Z" fill="#DDB1A2"/>
<path d="M150.172 81.4598C144.549 79.8799 143.592 87.2432 148.613 88.948C153.894 90.7422 155.058 82.8325 150.172 81.4598Z" fill="#DDB1A2"/>
</g>
<g opacity="0.9">
<path d="M200.335 94.8145C199.459 99.1211 198.498 103.612 195.727 107.024C193.728 109.486 190.951 111.169 188.221 112.783" stroke="#85AC8F" stroke-miterlimit="10" stroke-linecap="round" stroke-linejoin="round"/>
<path d="M212.599 104.671C208.861 105.161 205.123 105.653 201.385 106.144C199.196 106.431 196.955 106.735 194.998 107.757" stroke="#85AC8F" stroke-miterlimit="10" stroke-linecap="round" stroke-linejoin="round"/>
<path d="M209.711 95.511C206.706 99.1262 202.545 101.763 197.993 102.939" stroke="#85AC8F" stroke-miterlimit="10" stroke-linecap="round" stroke-linejoin="round"/>
<path d="M208.447 92.471C208.188 94.605 209.814 96.795 211.931 97.1651C213.981 97.5233 216.215 96.0882 216.641 94.0504C217.739 88.78 209.179 86.4342 208.447 92.471Z" fill="#DDB1A2"/>
<path d="M211.769 104.664C211.738 106.372 212.858 108.042 214.448 108.664C216.079 109.3 218.033 108.82 219.328 107.644C220.015 107.019 220.552 106.174 220.606 105.247C220.679 104.019 219.906 102.889 218.993 102.065C216.359 99.6854 211.842 100.572 211.769 104.664Z" fill="#DDB1A2"/>
<path d="M200.068 95.167C205.787 96.3508 206.228 88.9387 201.1 87.5883C195.707 86.1668 195.098 94.1384 200.068 95.167Z" fill="#DDB1A2"/>
</g>
<g opacity="0.9">
<path d="M109.412 41.7725C112.029 38.241 114.8 34.5794 118.754 32.6618C121.607 31.2774 124.836 30.9275 127.993 30.621" stroke="#85AC8F" stroke-miterlimit="10" stroke-linecap="round" stroke-linejoin="round"/>
<path d="M102.472 27.6529C106.067 28.7899 109.661 29.9278 113.255 31.0648C115.36 31.7309 117.519 32.4048 119.725 32.3074" stroke="#85AC8F" stroke-miterlimit="10" stroke-linecap="round" stroke-linejoin="round"/>
<path d="M101.212 37.1734C105.464 35.1704 110.351 34.5425 114.972 35.4036" stroke="#85AC8F" stroke-miterlimit="10" stroke-linecap="round" stroke-linejoin="round"/>
<path d="M101.071 40.4618C102.208 38.6382 101.662 35.965 99.9008 34.7341C98.1949 33.5419 95.5637 33.8964 94.3164 35.5623C91.0894 39.8725 97.8521 45.6221 101.071 40.4618Z" fill="#F8A97F"/>
<path d="M103.222 28.0097C103.973 26.4756 103.666 24.4882 102.487 23.252C101.28 21.9851 99.3068 21.5926 97.6347 22.1096C96.7472 22.3843 95.9045 22.9231 95.4622 23.7397C94.8768 24.8216 95.0977 26.1714 95.5764 27.3049C96.956 30.5767 101.424 31.6865 103.222 28.0097Z" fill="#F8A97F"/>
<path d="M109.803 41.5668C105.123 38.0742 101.586 44.6017 105.66 47.9968C109.945 51.5673 113.87 44.6026 109.803 41.5668Z" fill="#F8A97F"/>
</g>
<g opacity="0.9">
<path d="M826.634 72.4788C830.924 73.4297 835.398 74.4683 838.761 77.2985C841.188 79.3403 842.822 82.1463 844.388 84.9039" stroke="#85AC8F" stroke-miterlimit="10" stroke-linecap="round" stroke-linejoin="round"/>
<path d="M836.702 60.3885C837.128 64.1343 837.554 67.8805 837.98 71.6263C838.229 73.8201 838.493 76.066 839.481 78.0404" stroke="#85AC8F" stroke-miterlimit="10" stroke-linecap="round" stroke-linejoin="round"/>
<path d="M827.494 63.116C831.056 66.1837 833.62 70.3903 834.717 74.9617" stroke="#85AC8F" stroke-miterlimit="10" stroke-linecap="round" stroke-linejoin="round"/>
<path d="M824.432 64.3273C826.561 64.6233 828.779 63.0351 829.186 60.925C829.58 58.882 828.184 56.6229 826.154 56.162C820.904 54.9716 818.409 63.4899 824.432 64.3273Z" fill="#DDB1A2"/>
<path d="M836.681 61.2184C838.389 61.279 840.077 60.1886 840.727 58.6088C841.391 56.9893 840.946 55.0276 839.793 53.7122C839.18 53.014 838.344 52.4628 837.418 52.3925C836.191 52.2984 835.049 53.0509 834.208 53.9496C831.783 56.5415 832.591 61.074 836.681 61.2184Z" fill="#DDB1A2"/>
<path d="M826.981 72.7515C828.265 67.0541 820.861 66.4839 819.422 71.5871C817.906 76.9549 825.866 77.7026 826.981 72.7515Z" fill="#DDB1A2"/>
</g>
<g opacity="0.9">
<path d="M396.695 97.3065C400.294 99.8285 404.028 102.502 406.05 106.403C407.509 109.22 407.945 112.438 408.335 115.585" stroke="#85AC8F" stroke-miterlimit="10" stroke-linecap="round" stroke-linejoin="round"/>
<path d="M410.626 89.9948C409.584 93.6184 408.542 97.2412 407.501 100.865C406.891 102.986 406.275 105.162 406.43 107.365" stroke="#85AC8F" stroke-miterlimit="10" stroke-linecap="round" stroke-linejoin="round"/>
<path d="M401.075 88.9875C403.191 93.1854 403.948 98.0541 403.209 102.696" stroke="#85AC8F" stroke-miterlimit="10" stroke-linecap="round" stroke-linejoin="round"/>
<path d="M397.783 88.9338C399.636 90.0224 402.294 89.4059 403.479 87.6123C404.625 85.8751 404.201 83.2538 402.503 82.0515C398.108 78.9394 392.54 85.8527 397.783 88.9338Z" fill="#FFDC8A"/>
<path d="M410.29 90.7545C411.844 91.4643 413.821 91.1052 415.026 89.8939C416.26 88.6532 416.6 86.6706 416.039 85.0127C415.741 84.1332 415.18 83.3043 414.351 82.8838C413.254 82.3273 411.91 82.5841 410.79 83.0923C407.556 84.5575 406.566 89.0543 410.29 90.7545Z" fill="#FFDC8A"/>
<path d="M396.911 97.6908C400.279 92.9199 393.659 89.5566 390.374 93.7201C386.919 98.0986 393.985 101.837 396.911 97.6908Z" fill="#FFDC8A"/>
</g>
<g opacity="0.9">
<path d="M556.519 98.012C557.647 102.259 558.781 106.71 557.814 110.997C557.115 114.09 555.376 116.833 553.647 119.491" stroke="#85AC8F" stroke-miterlimit="10" stroke-linecap="round" stroke-linejoin="round"/>
<path d="M571.885 101.395C568.754 103.495 565.622 105.595 562.491 107.695C560.658 108.925 558.785 110.192 557.485 111.977" stroke="#85AC8F" stroke-miterlimit="10" stroke-linecap="round" stroke-linejoin="round"/>
<path d="M565.229 94.4704C564.142 99.0435 561.585 103.256 558.029 106.331" stroke="#85AC8F" stroke-miterlimit="10" stroke-linecap="round" stroke-linejoin="round"/>
<path d="M562.746 92.3101C563.462 94.3363 565.891 95.5775 567.953 94.9678C569.949 94.378 571.313 92.0999 570.789 90.0858C569.433 84.8749 560.72 86.5746 562.746 92.3101Z" fill="#9C8067"/>
<path d="M571.138 101.758C571.869 103.302 573.613 104.301 575.314 104.151C577.057 103.997 578.595 102.699 579.233 101.071C579.573 100.206 579.677 99.2101 579.314 98.3549C578.833 97.2221 577.641 96.5537 576.456 96.2201C573.039 95.2587 569.386 98.0582 571.138 101.758Z" fill="#9C8067"/>
<path d="M556.436 98.4454C562.085 96.9656 559.189 90.1291 553.994 91.1962C548.531 92.32 551.526 99.7317 556.436 98.4454Z" fill="#9C8067"/>
</g>
<g opacity="0.9">
<path d="M794.814 110.66C798.995 109.306 803.379 107.935 807.711 108.671C810.837 109.202 813.669 110.792 816.416 112.376" stroke="#85AC8F" stroke-miterlimit="10" stroke-linecap="round" stroke-linejoin="round"/>
<path d="M797.368 95.1349C799.633 98.1489 801.899 101.163 804.163 104.177C805.49 105.942 806.856 107.744 808.707 108.947" stroke="#85AC8F" stroke-miterlimit="10" stroke-linecap="round" stroke-linejoin="round"/>
<path d="M790.811 102.152C795.435 102.992 799.779 105.319 803.04 108.705" stroke="#85AC8F" stroke-miterlimit="10" stroke-linecap="round" stroke-linejoin="round"/>
<path d="M788.786 104.748C790.771 103.924 791.88 101.432 791.161 99.4054C790.465 97.4437 788.117 96.2033 786.134 96.8352C781.003 98.4689 783.168 107.078 788.786 104.748Z" fill="#9C8067"/>
<path d="M797.771 95.8613C799.273 95.0485 800.177 93.253 799.936 91.5622C799.689 89.8299 798.311 88.3642 796.65 87.8139C795.769 87.5216 794.769 87.4708 793.934 87.8792C792.829 88.4203 792.225 89.6464 791.956 90.8472C791.179 94.3106 794.17 97.8091 797.771 95.8613Z" fill="#9C8067"/>
<path d="M795.251 110.719C793.471 105.158 786.799 108.416 788.143 113.547C789.558 118.941 796.799 115.553 795.251 110.719Z" fill="#9C8067"/>
</g>
<g opacity="0.9">
<path d="M997.37 55.3049C997.867 59.6715 998.342 64.239 996.761 68.3406C995.62 71.2998 993.499 73.759 991.402 76.1374" stroke="#85AC8F" stroke-miterlimit="10" stroke-linecap="round" stroke-linejoin="round"/>
<path d="M1012.08 60.8887C1008.68 62.5103 1005.27 64.1334 1001.87 65.7551C999.876 66.7048 997.839 67.6859 996.294 69.2625" stroke="#85AC8F" stroke-miterlimit="10" stroke-linecap="round" stroke-linejoin="round"/>
<path d="M1006.5 53.0701C1004.76 57.4369 1001.62 61.2308 997.654 63.7558" stroke="#85AC8F" stroke-miterlimit="10" stroke-linecap="round" stroke-linejoin="round"/>
<path d="M1004.36 50.5692C1004.77 52.6788 1007 54.2589 1009.13 53.9567C1011.19 53.6641 1012.87 51.6087 1012.64 49.5392C1012.06 44.1873 1003.19 44.6016 1004.36 50.5692Z" fill="#DDB1A2"/>
<path d="M1011.29 61.1393C1011.79 62.7733 1013.37 64.015 1015.07 64.1146C1016.82 64.2156 1018.53 63.1562 1019.4 61.6372C1019.86 60.8308 1020.11 59.8612 1019.87 58.9624C1019.56 57.7718 1018.48 56.9366 1017.36 56.4345C1014.12 54.9854 1010.09 57.2245 1011.29 61.1393Z" fill="#DDB1A2"/>
<path d="M997.225 55.7224C1003.03 55.081 1001.16 47.8955 995.865 48.1956C990.297 48.5104 992.181 56.2799 997.225 55.7224Z" fill="#DDB1A2"/>
</g>
<g opacity="0.9">
<path d="M502.514 84.5378C498.243 85.5759 493.77 86.6147 489.504 85.5566C486.427 84.7932 483.722 82.9955 481.1 81.2098" stroke="#85AC8F" stroke-miterlimit="10" stroke-linecap="round" stroke-linejoin="round"/>
<path d="M498.806 99.8283C496.773 96.6536 494.739 93.4782 492.706 90.3042C491.515 88.4449 490.288 86.5457 488.532 85.2082" stroke="#85AC8F" stroke-miterlimit="10" stroke-linecap="round" stroke-linejoin="round"/>
<path d="M505.869 93.3213C501.32 92.1372 497.163 89.4923 494.165 85.8711" stroke="#85AC8F" stroke-miterlimit="10" stroke-linecap="round" stroke-linejoin="round"/>
<path d="M508.083 90.885C506.042 91.5578 504.75 93.9607 505.316 96.0347C505.863 98.0425 508.111 99.4548 510.137 98.9734C515.375 97.7274 513.86 88.9813 508.083 90.885Z" fill="#DDB1A2"/>
<path d="M498.459 99.0742C496.9 99.7726 495.864 101.496 495.978 103.199C496.095 104.945 497.36 106.51 498.976 107.183C499.833 107.54 500.826 107.666 501.688 107.321C502.83 106.864 503.524 105.686 503.883 104.51C504.917 101.113 502.195 97.4006 498.459 99.0742Z" fill="#DDB1A2"/>
<path d="M502.083 84.4472C503.442 90.1262 510.339 87.3757 509.382 82.1599C508.375 76.6727 500.901 79.5108 502.083 84.4472Z" fill="#DDB1A2"/>
</g>
<g opacity="0.9">
<path d="M967.973 98.7964C970.649 102.283 973.408 105.954 974.165 110.284C974.712 113.408 974.16 116.608 973.587 119.727" stroke="#85AC8F" stroke-miterlimit="10" stroke-linecap="round" stroke-linejoin="round"/>
<path d="M983.457 96.0069C981.376 99.1497 979.294 102.294 977.212 105.437C975.993 107.277 974.752 109.168 974.239 111.315" stroke="#85AC8F" stroke-miterlimit="10" stroke-linecap="round" stroke-linejoin="round"/>
<path d="M974.65 92.177C975.407 96.8168 974.667 101.687 972.569 105.894" stroke="#85AC8F" stroke-miterlimit="10" stroke-linecap="round" stroke-linejoin="round"/>
<path d="M971.526 91.1368C972.967 92.7322 975.687 92.9413 977.355 91.5865C978.97 90.2746 979.353 87.6468 978.094 85.9888C974.837 81.702 967.451 86.6238 971.526 91.1368Z" fill="#DDB1A2"/>
<path d="M982.908 96.6294C984.177 97.7732 986.171 98.0234 987.684 97.2306C989.234 96.4171 990.154 94.6283 990.116 92.8791C990.096 91.9506 989.81 90.9912 989.145 90.3418C988.266 89.4812 986.907 89.3233 985.686 89.4715C982.162 89.8982 979.867 93.8893 982.908 96.6294Z" fill="#DDB1A2"/>
<path d="M968.064 99.2288C972.71 95.6893 967.405 90.4938 963.022 93.4777C958.411 96.6156 964.027 102.305 968.064 99.2288Z" fill="#DDB1A2"/>
</g>
<g opacity="0.9">
<path d="M864.18 50.241C868.435 51.3443 872.868 52.542 876.127 55.4897C878.479 57.6162 880.013 60.4789 881.48 63.291" stroke="#85AC8F" stroke-miterlimit="10" stroke-linecap="round" stroke-linejoin="round"/>
<path d="M874.672 38.5172C874.964 42.2757 875.256 46.0348 875.548 49.7932C875.719 51.9944 875.903 54.2485 876.819 56.2572" stroke="#85AC8F" stroke-miterlimit="10" stroke-linecap="round" stroke-linejoin="round"/>
<path d="M865.372 40.9148C868.822 44.107 871.235 48.4031 872.168 53.0104" stroke="#85AC8F" stroke-miterlimit="10" stroke-linecap="round" stroke-linejoin="round"/>
<path d="M862.271 42.0163C864.387 42.3875 866.661 40.88 867.143 38.7856C867.609 36.7574 866.295 34.4505 864.283 33.9181C859.078 32.5407 856.28 40.9648 862.271 42.0163Z" fill="#F8A97F"/>
<path d="M874.622 39.3463C876.326 39.4677 878.053 38.4384 878.758 36.8824C879.48 35.2882 879.105 33.3119 877.999 31.9553C877.412 31.2353 876.597 30.6557 875.674 30.5516C874.452 30.4141 873.283 31.1246 872.411 31.9931C869.894 34.4978 870.539 39.0558 874.622 39.3463Z" fill="#F8A97F"/>
<path d="M864.517 50.5261C866.002 44.8782 858.625 44.044 857.004 49.0936C855.298 54.4043 863.226 55.4343 864.517 50.5261Z" fill="#F8A97F"/>
</g>
<g opacity="0.9">
<path d="M591.759 55.0291C588.094 52.6036 584.29 50.031 582.165 46.1834C580.631 43.4076 580.111 40.2022 579.637 37.0665" stroke="#85AC8F" stroke-miterlimit="10" stroke-linecap="round" stroke-linejoin="round"/>
<path d="M578.027 62.7081C578.972 59.0587 579.916 55.4084 580.861 51.759C581.415 49.6216 581.973 47.4302 581.759 45.233" stroke="#85AC8F" stroke-miterlimit="10" stroke-linecap="round" stroke-linejoin="round"/>
<path d="M587.601 63.4617C585.375 59.3211 584.489 54.475 585.103 49.8144" stroke="#85AC8F" stroke-miterlimit="10" stroke-linecap="round" stroke-linejoin="round"/>
<path d="M590.894 63.4283C589.012 62.3889 586.372 63.0767 585.236 64.9008C584.136 66.667 584.63 69.2763 586.36 70.4341C590.835 73.427 596.217 66.3685 590.894 63.4283Z" fill="#DDB1A2"/>
<path d="M578.344 61.9406C576.771 61.2722 574.804 61.685 573.632 62.9272C572.431 64.201 572.144 66.1919 572.749 67.8333C573.071 68.7046 573.653 69.5187 574.493 69.9163C575.604 70.4438 576.941 70.1507 578.047 69.6128C581.24 68.0622 582.111 63.5414 578.344 61.9406Z" fill="#DDB1A2"/>
<path d="M591.532 54.6499C588.292 59.509 595 62.6944 598.173 58.446C601.511 53.9779 594.348 50.4274 591.532 54.6499Z" fill="#DDB1A2"/>
</g>
<g opacity="0.9">
<path d="M719.571 99.5281C721.405 103.522 723.278 107.715 723.053 112.104C722.891 115.271 721.643 118.269 720.39 121.183" stroke="#85AC8F" stroke-miterlimit="10" stroke-linecap="round" stroke-linejoin="round"/>
<path d="M735.288 100.25C732.559 102.851 729.831 105.454 727.103 108.055C725.505 109.579 723.875 111.146 722.897 113.125" stroke="#85AC8F" stroke-miterlimit="10" stroke-linecap="round" stroke-linejoin="round"/>
<path d="M727.553 94.5581C727.258 99.2496 725.455 103.835 722.473 107.469" stroke="#85AC8F" stroke-miterlimit="10" stroke-linecap="round" stroke-linejoin="round"/>
<path d="M724.739 92.8497C725.789 94.7253 728.394 95.5347 730.322 94.584C732.188 93.6638 733.146 91.1872 732.287 89.2909C730.064 84.3867 721.768 87.5425 724.739 92.8497Z" fill="#DDB1A2"/>
<path d="M734.614 100.735C735.597 102.132 737.486 102.82 739.136 102.383C740.828 101.935 742.123 100.395 742.475 98.6805C742.662 97.771 742.596 96.7723 742.093 95.9918C741.427 94.9578 740.138 94.5008 738.915 94.3736C735.383 94.0064 732.258 97.3866 734.614 100.735Z" fill="#DDB1A2"/>
<path d="M719.564 99.9685C724.879 97.5508 720.864 91.3053 715.926 93.2396C710.732 95.2751 714.944 102.07 719.564 99.9685Z" fill="#DDB1A2"/>
</g>
<g opacity="0.9">
<path d="M756.084 63.3494C753.059 60.1617 749.931 56.7993 748.725 52.5721C747.855 49.5225 748.069 46.2821 748.313 43.1203" stroke="#85AC8F" stroke-miterlimit="10" stroke-linecap="round" stroke-linejoin="round"/>
<path d="M740.976 67.7422C742.718 64.399 744.459 61.0547 746.201 57.7115C747.222 55.7534 748.258 53.7437 748.544 51.5546" stroke="#85AC8F" stroke-miterlimit="10" stroke-linecap="round" stroke-linejoin="round"/>
<path d="M750.135 70.6304C748.898 66.0951 749.124 61.1739 750.772 56.771" stroke="#85AC8F" stroke-miterlimit="10" stroke-linecap="round" stroke-linejoin="round"/>
<path d="M753.351 71.3385C751.751 69.9024 749.024 69.9788 747.507 71.5005C746.038 72.974 745.932 75.6275 747.357 77.1448C751.044 81.0677 757.876 75.4007 753.351 71.3385Z" fill="#DDB1A2"/>
<path d="M741.457 67.0658C740.076 66.0609 738.066 66.0206 736.644 66.9672C735.188 67.9382 734.46 69.8134 734.681 71.549C734.798 72.4703 735.183 73.3946 735.911 73.9709C736.876 74.7349 738.244 74.7499 739.443 74.4748C742.903 73.6821 744.768 69.473 741.457 67.0658Z" fill="#DDB1A2"/>
<path d="M755.948 62.929C751.698 66.9347 757.517 71.5472 761.564 68.1215C765.822 64.5188 759.641 59.4479 755.948 62.929Z" fill="#DDB1A2"/>
</g>
<g opacity="0.9">
<path d="M465.341 65.1169C462.791 61.5369 460.165 57.7699 459.563 53.4169C459.128 50.2759 459.793 47.0969 460.477 43.9999" stroke="#85AC8F" stroke-miterlimit="10" stroke-linecap="round" stroke-linejoin="round"/>
<path d="M449.768 67.354C451.96 64.287 454.153 61.22 456.345 58.153C457.629 56.357 458.937 54.512 459.526 52.384" stroke="#85AC8F" stroke-miterlimit="10" stroke-linecap="round" stroke-linejoin="round"/>
<path d="M458.432 71.4949C457.841 66.8319 458.754 61.9899 461.001 57.8609" stroke="#85AC8F" stroke-miterlimit="10" stroke-linecap="round" stroke-linejoin="round"/>
<path d="M461.516 72.645C460.133 71 457.422 70.693 455.707 71.988C454.046 73.242 453.57 75.854 454.769 77.555C457.871 81.956 465.429 77.301 461.516 72.645Z" fill="#F8A97F"/>
<path d="M450.339 66.7509C449.112 65.5629 447.127 65.2409 445.587 65.9799C444.009 66.7369 443.026 68.4919 443.001 70.2419C442.988 71.1709 443.24 72.1389 443.88 72.8119C444.728 73.7029 446.08 73.9099 447.306 73.8049C450.844 73.5039 453.28 69.5979 450.339 66.7509Z" fill="#F8A97F"/>
<path d="M465.266 64.6821C460.498 68.0541 465.613 73.4351 470.101 70.6091C474.821 67.6371 469.41 61.7521 465.266 64.6821Z" fill="#F8A97F"/>
</g>
<g opacity="0.9">
<path d="M979.964 13.7537C978.029 17.6989 975.965 21.8024 972.423 24.4028C969.866 26.2792 966.754 27.2079 963.705 28.0796" stroke="#85AC8F" stroke-miterlimit="10" stroke-linecap="round" stroke-linejoin="round"/>
<path d="M989.342 26.3873C985.601 25.918 981.859 25.4493 978.119 24.98C975.928 24.7049 973.683 24.433 971.531 24.9267" stroke="#85AC8F" stroke-miterlimit="10" stroke-linecap="round" stroke-linejoin="round"/>
<path d="M988.861 16.7949C985.041 19.5334 980.348 21.0353 975.647 21.023" stroke="#85AC8F" stroke-miterlimit="10" stroke-linecap="round" stroke-linejoin="round"/>
<path d="M988.404 13.5352C987.616 15.5344 988.635 18.0647 990.591 18.9573C992.484 19.8218 995.009 18.9977 995.934 17.1333C998.329 12.3109 990.638 7.87755 988.404 13.5352Z" fill="#9C8067"/>
<path d="M988.539 26.1716C988.078 27.8163 988.74 29.7144 990.122 30.7177C991.539 31.745 993.55 31.7743 995.101 30.964C995.924 30.5341 996.656 29.8508 996.943 28.9672C997.323 27.7967 996.862 26.5101 996.187 25.4813C994.239 22.5141 989.645 22.2297 988.539 26.1716Z" fill="#9C8067"/>
<path d="M979.617 14.0264C984.852 16.6157 987.151 9.55626 982.53 6.95314C977.67 4.21717 975.068 11.7761 979.617 14.0264Z" fill="#9C8067"/>
</g>
<g opacity="0.9">
<path d="M753.94 23.947C758.153 25.1982 762.542 26.5499 765.696 29.6095C767.973 31.8168 769.406 34.7313 770.774 37.5929" stroke="#85AC8F" stroke-miterlimit="10" stroke-linecap="round" stroke-linejoin="round"/>
<path d="M764.834 12.5966C764.995 16.363 765.155 20.13 765.316 23.8963C765.41 26.1021 765.515 28.3613 766.361 30.4008" stroke="#85AC8F" stroke-miterlimit="10" stroke-linecap="round" stroke-linejoin="round"/>
<path d="M755.457 14.6681C758.793 17.9788 761.055 22.3564 761.826 26.9935" stroke="#85AC8F" stroke-miterlimit="10" stroke-linecap="round" stroke-linejoin="round"/>
<path d="M752.318 15.6605C754.421 16.1054 756.746 14.6782 757.301 12.6019C757.837 10.5911 756.604 8.23976 754.612 7.63753C749.458 6.07928 746.368 14.4006 752.318 15.6605Z" fill="#F8A97F"/>
<path d="M764.755 13.4232C766.454 13.6039 768.216 12.6355 768.975 11.1051C769.752 9.53705 769.446 7.54889 768.389 6.15448C767.827 5.41441 767.032 4.80678 766.114 4.67047C764.897 4.49044 763.704 5.15968 762.803 5.99722C760.2 8.41262 760.685 12.9903 764.755 13.4232Z" fill="#F8A97F"/>
<path d="M754.267 24.2435C755.948 18.6509 748.604 17.5597 746.808 22.5497C744.918 27.7976 752.805 29.1037 754.267 24.2435Z" fill="#F8A97F"/>
</g>
<g opacity="0.9">
<path d="M205.317 34.2325C201.367 32.3045 197.261 30.2484 194.653 26.711C192.772 24.1579 191.838 21.0477 190.96 18.0001" stroke="#85AC8F" stroke-miterlimit="10" stroke-linecap="round" stroke-linejoin="round"/>
<path d="M192.701 43.6336C193.163 39.8918 193.625 36.1505 194.087 32.4086C194.358 30.2176 194.626 27.9725 194.128 25.8208" stroke="#85AC8F" stroke-miterlimit="10" stroke-linecap="round" stroke-linejoin="round"/>
<path d="M202.292 43.1342C199.546 39.319 198.036 34.6287 198.04 29.9279" stroke="#85AC8F" stroke-miterlimit="10" stroke-linecap="round" stroke-linejoin="round"/>
<path d="M205.551 42.6723C203.551 41.8869 201.022 42.9116 200.133 44.8685C199.272 46.7636 200.101 49.2863 201.967 50.2081C206.794 52.5944 211.212 44.8952 205.551 42.6723Z" fill="#FFDC8A"/>
<path d="M192.914 42.8307C191.268 42.3727 189.371 43.0368 188.371 44.4215C187.346 45.8401 187.321 47.8514 188.134 49.4011C188.565 50.2233 189.25 50.9541 190.134 51.2398C191.305 51.6178 192.592 51.154 193.619 50.4767C196.583 48.5238 196.858 43.9273 192.914 42.8307Z" fill="#FFDC8A"/>
<path d="M205.042 33.8867C202.463 39.1256 209.527 41.4119 212.121 36.7858C214.849 31.9206 207.285 29.3333 205.042 33.8867Z" fill="#FFDC8A"/>
</g>
<g opacity="0.9">
<path d="M915.362 15.5613C917.266 19.5227 919.212 23.6819 919.064 28.0744C918.957 31.2435 917.761 34.2631 916.559 37.1985" stroke="#85AC8F" stroke-miterlimit="10" stroke-linecap="round" stroke-linejoin="round"/>
<path d="M931.09 16.0089C928.407 18.6575 925.724 21.3068 923.042 23.9558C921.471 25.5071 919.869 27.1026 918.925 29.0984" stroke="#85AC8F" stroke-miterlimit="10" stroke-linecap="round" stroke-linejoin="round"/>
<path d="M923.256 10.4526C923.044 15.1486 921.321 19.7646 918.402 23.45" stroke="#85AC8F" stroke-miterlimit="10" stroke-linecap="round" stroke-linejoin="round"/>
<path d="M920.413 8.79373C921.495 10.6508 924.114 11.4146 926.026 10.4303C927.876 9.47777 928.79 6.98476 927.898 5.10376C925.59 0.239084 917.35 3.5392 920.413 8.79373Z" fill="#DDB1A2"/>
<path d="M930.424 16.5056C931.432 17.885 933.333 18.5403 934.975 18.0739C936.658 17.5966 937.926 16.0343 938.248 14.314C938.42 13.4013 938.336 12.4039 937.82 11.6324C937.135 10.6101 935.839 10.1757 934.614 10.0699C931.076 9.76439 928.011 13.1986 930.424 16.5056Z" fill="#DDB1A2"/>
<path d="M915.363 16.0017C920.636 13.4916 916.511 7.31721 911.608 9.33738C906.45 11.4632 910.78 18.1835 915.363 16.0017Z" fill="#DDB1A2"/>
</g>
<g opacity="0.9">
<path d="M415.665 30.5168C415.384 26.1309 415.138 21.5455 416.921 17.5284C418.207 14.63 420.447 12.2784 422.661 10.0069" stroke="#85AC8F" stroke-miterlimit="10" stroke-linecap="round" stroke-linejoin="round"/>
<path d="M401.25 24.2105C404.73 22.7598 408.21 21.3084 411.689 19.857C413.727 19.0072 415.81 18.1282 417.432 16.6311" stroke="#85AC8F" stroke-miterlimit="10" stroke-linecap="round" stroke-linejoin="round"/>
<path d="M406.432 32.2964C408.388 28.022 411.715 24.3874 415.802 22.0638" stroke="#85AC8F" stroke-miterlimit="10" stroke-linecap="round" stroke-linejoin="round"/>
<path d="M408.447 34.8997C408.139 32.7723 405.997 31.0831 403.856 31.2797C401.784 31.4698 400.003 33.4389 400.125 35.5171C400.443 40.8921 409.319 40.9191 408.447 34.8997Z" fill="#DDB1A2"/>
<path d="M402.054 23.999C401.637 22.3427 400.119 21.023 398.422 20.8402C396.683 20.6523 394.922 21.6258 393.978 23.1001C393.478 23.8821 393.181 24.8382 393.371 25.747C393.623 26.9513 394.662 27.8397 395.759 28.3968C398.924 30.0051 403.053 27.9695 402.054 23.999Z" fill="#DDB1A2"/>
<path d="M415.829 30.1081C410 30.4603 411.511 37.7301 416.814 37.6937C422.393 37.6549 420.896 29.8019 415.829 30.1081Z" fill="#DDB1A2"/>
</g>
<g opacity="0.9">
<path d="M310.148 95.844C314.43 96.8341 318.894 97.9138 322.23 100.774C324.638 102.838 326.248 105.659 327.789 108.431" stroke="#85AC8F" stroke-miterlimit="10" stroke-linecap="round" stroke-linejoin="round"/>
<path d="M320.326 83.8459C320.718 87.5957 321.109 91.3452 321.501 95.095C321.73 97.2907 321.973 99.5387 322.943 101.523" stroke="#85AC8F" stroke-miterlimit="10" stroke-linecap="round" stroke-linejoin="round"/>
<path d="M311.093 86.4899C314.628 89.5896 317.154 93.8199 318.207 98.4012" stroke="#85AC8F" stroke-miterlimit="10" stroke-linecap="round" stroke-linejoin="round"/>
<path d="M308.022 87.6733C310.147 87.9886 312.381 86.4212 312.807 84.3145C313.219 82.2744 311.844 80.0028 309.819 79.5243C304.579 78.285 302.006 86.7808 308.022 87.6733Z" fill="#FFDC8A"/>
<path d="M320.299 84.6764C322.006 84.7523 323.705 83.6786 324.368 82.1043C325.048 80.4915 324.62 78.5261 323.479 77.199C322.873 76.495 322.042 75.9369 321.116 75.8574C319.89 75.7525 318.741 76.4939 317.892 77.3849C315.443 79.9546 316.209 84.4951 320.299 84.6764Z" fill="#FFDC8A"/>
<path d="M310.494 96.1192C311.828 90.4343 304.431 89.7957 302.945 94.8866C301.381 100.241 309.333 101.06 310.494 96.1192Z" fill="#FFDC8A"/>
</g>
<g opacity="0.9">
<path d="M937.87 61.6408C941.753 63.6991 945.789 65.8907 948.277 69.5129C950.073 72.1273 950.903 75.2668 951.679 78.3419" stroke="#85AC8F" stroke-miterlimit="10" stroke-linecap="round" stroke-linejoin="round"/>
<path d="M950.792 52.6647C950.206 56.3892 949.619 60.113 949.033 63.8374C948.689 66.0182 948.347 68.2532 948.773 70.4203" stroke="#85AC8F" stroke-miterlimit="10" stroke-linecap="round" stroke-linejoin="round"/>
<path d="M941.189 52.8445C943.807 56.7489 945.16 61.4868 945 66.1849" stroke="#85AC8F" stroke-miterlimit="10" stroke-linecap="round" stroke-linejoin="round"/>
<path d="M937.916 53.1979C939.889 54.0493 942.451 53.1094 943.405 51.1832C944.328 49.3178 943.583 46.7689 941.75 45.7855C937.004 43.2399 932.333 50.7879 937.916 53.1979Z" fill="#FFDC8A"/>
<path d="M950.552 53.4602C952.181 53.9726 954.099 53.3721 955.145 52.0214C956.217 50.6377 956.309 48.6283 955.548 47.0524C955.144 46.2164 954.484 45.4631 953.61 45.1482C952.452 44.7314 951.151 45.1522 950.102 45.7949C947.074 47.6482 946.646 52.2329 950.552 53.4602Z" fill="#FFDC8A"/>
<path d="M938.132 61.9955C940.885 56.8453 933.901 54.3252 931.155 58.8624C928.266 63.6342 935.74 66.4718 938.132 61.9955Z" fill="#FFDC8A"/>
</g>
<g opacity="0.9">
<path d="M267.705 83.761C264.345 80.9286 260.863 77.9331 259.197 73.8669C257.994 70.9324 257.846 67.6884 257.738 64.5187" stroke="#85AC8F" stroke-miterlimit="10" stroke-linecap="round" stroke-linejoin="round"/>
<path d="M253.178 89.8035C254.538 86.2875 255.898 82.7705 257.259 79.2545C258.055 77.1955 258.862 75.0833 258.904 72.8755" stroke="#85AC8F" stroke-miterlimit="10" stroke-linecap="round" stroke-linejoin="round"/>
<path d="M262.601 91.6579C260.869 87.2886 260.547 82.3715 261.696 77.8131" stroke="#85AC8F" stroke-miterlimit="10" stroke-linecap="round" stroke-linejoin="round"/>
<path d="M265.875 92.0034C264.126 90.7545 261.424 91.131 260.085 92.813C258.788 94.4412 258.977 97.0899 260.562 98.4388C264.662 101.929 270.824 95.5397 265.875 92.0034Z" fill="#9C8067"/>
<path d="M253.581 89.0773C252.097 88.232 250.095 88.4147 248.787 89.513C247.448 90.6389 246.933 92.5838 247.344 94.2843C247.562 95.1869 248.048 96.0627 248.836 96.5549C249.879 97.207 251.239 97.0708 252.401 96.6646C255.751 95.4923 257.139 91.1034 253.581 89.0773Z" fill="#9C8067"/>
<path d="M267.524 83.3587C263.745 87.8111 270.039 91.7502 273.683 87.8961C277.513 83.8421 270.808 79.4889 267.524 83.3587Z" fill="#9C8067"/>
</g>
<g opacity="0.9">
<path d="M275.715 14.7324C271.968 17.0289 268.028 19.3892 263.643 19.6897C260.479 19.9066 257.354 19.0237 254.312 18.1278" stroke="#85AC8F" stroke-miterlimit="10" stroke-linecap="round" stroke-linejoin="round"/>
<path d="M276.87 30.4235C273.962 28.0244 271.053 25.626 268.145 23.227C266.442 21.8219 264.692 20.39 262.61 19.6557" stroke="#85AC8F" stroke-miterlimit="10" stroke-linecap="round" stroke-linejoin="round"/>
<path d="M281.6 22.0647C276.906 22.3324 272.14 21.0876 268.175 18.5609" stroke="#85AC8F" stroke-miterlimit="10" stroke-linecap="round" stroke-linejoin="round"/>
<path d="M282.961 19.0668C281.223 20.3329 280.731 23.0161 281.904 24.8167C283.04 26.56 285.614 27.2154 287.394 26.1368C291.998 23.3458 287.875 15.4851 282.961 19.0668Z" fill="#DDB1A2"/>
<path d="M276.309 29.8121C275.039 30.9545 274.581 32.912 275.212 34.4995C275.859 36.126 277.542 37.228 279.285 37.3729C280.211 37.4496 281.195 37.2657 281.91 36.6727C282.858 35.8882 283.157 34.5533 283.137 33.323C283.081 29.774 279.352 27.0744 276.309 29.8121Z" fill="#DDB1A2"/>
<path d="M275.275 14.7777C278.31 19.7677 284.031 15.0351 281.522 10.364C278.883 5.45013 272.638 10.4416 275.275 14.7777Z" fill="#DDB1A2"/>
</g>
<g opacity="0.9">
<path d="M37.3445 21.73C37.7375 17.3532 38.194 12.7826 40.5691 9.08538C42.2834 6.41742 44.8556 4.43531 47.3901 2.52866" stroke="#85AC8F" stroke-miterlimit="10" stroke-linecap="round" stroke-linejoin="round"/>
<path d="M24.0625 13.2959C27.723 12.3935 31.3839 11.4903 35.0443 10.5879C37.188 10.0596 39.381 9.509 41.2134 8.27679" stroke="#85AC8F" stroke-miterlimit="10" stroke-linecap="round" stroke-linejoin="round"/>
<path d="M27.9487 22.079C30.5338 18.1534 34.377 15.0694 38.7702 13.3962" stroke="#85AC8F" stroke-miterlimit="10" stroke-linecap="round" stroke-linejoin="round"/>
<path d="M29.543 24.9584C29.5629 22.8094 27.7048 20.8123 25.5588 20.68C23.4812 20.5515 21.4199 22.2256 21.2241 24.2977C20.7164 29.6581 29.485 31.0409 29.543 24.9584Z" fill="#9C8067"/>
<path d="M24.8887 13.2098C24.7297 11.5091 23.4319 9.97417 21.7821 9.53283C20.0915 9.08133 18.2029 9.77496 17.0457 11.0871C16.4314 11.7834 15.9927 12.6837 16.0414 13.6115C16.106 14.8405 16.9975 15.8763 17.9966 16.5949C20.8785 18.6669 25.2695 17.286 24.8887 13.2098Z" fill="#9C8067"/>
<path d="M37.5703 21.3512C31.7557 20.8097 32.1388 28.2243 37.3858 28.9985C42.9037 29.811 42.6239 21.8217 37.5703 21.3512Z" fill="#9C8067"/>
</g>
<g opacity="0.9">
<path d="M356.642 48.0293C352.275 47.5288 347.718 46.9597 344.081 44.4944C341.455 42.7159 339.538 40.0945 337.694 37.5139" stroke="#85AC8F" stroke-miterlimit="10" stroke-linecap="round" stroke-linejoin="round"/>
<path d="M347.884 61.0993C347.071 57.4181 346.259 53.7361 345.447 50.0549C344.971 47.899 344.476 45.6924 343.288 43.8308" stroke="#85AC8F" stroke-miterlimit="10" stroke-linecap="round" stroke-linejoin="round"/>
<path d="M356.759 57.4309C352.898 54.7499 349.911 50.8315 348.346 46.3988" stroke="#85AC8F" stroke-miterlimit="10" stroke-linecap="round" stroke-linejoin="round"/>
<path d="M359.677 55.9082C357.529 55.8352 355.487 57.6445 355.302 59.7855C355.122 61.859 356.745 63.9604 358.811 64.2076C364.158 64.8472 365.756 56.1157 359.677 55.9082Z" fill="#F8A97F"/>
<path d="M347.818 60.2712C346.114 60.3882 344.546 61.6478 344.065 63.2868C343.572 64.966 344.218 66.8708 345.502 68.0604C346.184 68.6917 347.072 69.1521 348 69.1268C349.23 69.0928 350.288 68.2266 351.03 67.2453C353.174 64.4146 351.901 59.9907 347.818 60.2712Z" fill="#F8A97F"/>
<path d="M356.268 47.794C355.584 53.5937 363.005 53.3931 363.908 48.1669C364.858 42.6706 356.864 42.7539 356.268 47.794Z" fill="#F8A97F"/>
</g>
<g opacity="0.9">
<path d="M649.18 102.241C653.435 103.344 657.868 104.542 661.127 107.49C663.479 109.616 665.013 112.479 666.48 115.291" stroke="#85AC8F" stroke-miterlimit="10" stroke-linecap="round" stroke-linejoin="round"/>
<path d="M659.672 90.5172C659.964 94.2757 660.256 98.0348 660.548 101.793C660.719 103.994 660.903 106.248 661.819 108.257" stroke="#85AC8F" stroke-miterlimit="10" stroke-linecap="round" stroke-linejoin="round"/>
<path d="M650.373 92.9148C653.823 96.107 656.236 100.403 657.168 105.01" stroke="#85AC8F" stroke-miterlimit="10" stroke-linecap="round" stroke-linejoin="round"/>
<path d="M647.271 94.0163C649.387 94.3875 651.661 92.88 652.143 90.7856C652.609 88.7574 651.295 86.4505 649.283 85.9181C644.078 84.5407 641.28 92.9648 647.271 94.0163Z" fill="#F8A97F"/>
<path d="M659.622 91.3463C661.326 91.4677 663.053 90.4384 663.758 88.8824C664.48 87.2882 664.105 85.3119 663 83.9553C662.412 83.2353 661.597 82.6557 660.674 82.5516C659.452 82.4141 658.283 83.1246 657.411 83.9931C654.895 86.4978 655.539 91.0558 659.622 91.3463Z" fill="#F8A97F"/>
<path d="M649.517 102.526C651.002 96.8782 643.625 96.044 642.004 101.094C640.298 106.404 648.226 107.434 649.517 102.526Z" fill="#F8A97F"/>
</g>
<g opacity="0.9">
<path d="M66.864 92.0681C67.9173 96.3344 68.9738 100.805 67.9318 105.074C67.1795 108.154 65.3927 110.866 63.6171 113.494" stroke="#85AC8F" stroke-miterlimit="10" stroke-linecap="round" stroke-linejoin="round"/>
<path d="M82.168 95.7182C79.0008 97.7632 75.8334 99.8091 72.6662 101.854C70.8113 103.051 68.9171 104.286 67.5857 106.048" stroke="#85AC8F" stroke-miterlimit="10" stroke-linecap="round" stroke-linejoin="round"/>
<path d="M75.634 88.679C74.4678 93.2324 71.838 97.3996 68.2289 100.412" stroke="#85AC8F" stroke-miterlimit="10" stroke-linecap="round" stroke-linejoin="round"/>
<path d="M73.1891 86.4755C73.87 88.5139 76.277 89.7973 78.3492 89.2237C80.3554 88.6688 81.7594 86.4148 81.27 84.3919C80.0049 79.1582 71.2638 80.7055 73.1891 86.4755Z" fill="#9C8067"/>
<path d="M81.4148 96.0688C82.1188 97.625 83.8456 98.6539 85.5492 98.534C87.2948 98.4105 88.8546 97.1398 89.5215 95.5224C89.8757 94.6641 89.9974 93.67 89.6493 92.8086C89.1881 91.6676 88.0079 90.9784 86.8294 90.6242C83.4299 89.6034 79.7277 92.3387 81.4148 96.0688Z" fill="#9C8067"/>
<path d="M66.7736 92.4996C72.4477 91.1186 69.6715 84.2326 64.4583 85.2089C58.9765 86.2371 61.8422 93.7 66.7736 92.4996Z" fill="#9C8067"/>
</g>
<g opacity="0.9">
<path d="M679.781 25.8237C681.451 21.7586 683.24 17.5293 686.603 14.7002C689.03 12.6591 692.074 11.5274 695.06 10.4563" stroke="#85AC8F" stroke-miterlimit="10" stroke-linecap="round" stroke-linejoin="round"/>
<path d="M669.59 13.8366C673.353 14.058 677.118 14.2792 680.881 14.4997C683.085 14.6292 685.343 14.7525 687.457 14.118" stroke="#85AC8F" stroke-miterlimit="10" stroke-linecap="round" stroke-linejoin="round"/>
<path d="M670.702 23.3757C674.334 20.3914 678.917 18.583 683.609 18.286" stroke="#85AC8F" stroke-miterlimit="10" stroke-linecap="round" stroke-linejoin="round"/>
<path d="M671.372 26.5989C672.028 24.5519 670.843 22.0945 668.833 21.3329C666.887 20.5953 664.423 21.5842 663.622 23.5058C661.551 28.4759 669.517 32.3913 671.372 26.5989Z" fill="#DDB1A2"/>
<path d="M670.404 13.9989C670.755 12.3273 669.97 10.4761 668.525 9.56778C667.044 8.63634 665.034 8.73941 663.54 9.65097C662.747 10.1344 662.062 10.8638 661.834 11.7638C661.533 12.9566 662.077 14.2108 662.819 15.1921C664.958 18.0251 669.562 18.0056 670.404 13.9989Z" fill="#DDB1A2"/>
<path d="M680.108 25.5284C674.714 23.2898 672.885 30.4863 677.667 32.7782C682.699 35.1888 684.796 27.4743 680.108 25.5284Z" fill="#DDB1A2"/>
</g>
<g opacity="0.9">
<path d="M911.083 98.4319C906.81 97.4062 902.356 96.2897 899.042 93.4012C896.652 91.3174 895.066 88.4833 893.549 85.6987" stroke="#85AC8F" stroke-miterlimit="10" stroke-linecap="round" stroke-linejoin="round"/>
<path d="M900.806 110.344C900.446 106.592 900.085 102.839 899.725 99.0861C899.514 96.8882 899.289 94.6381 898.336 92.6467" stroke="#85AC8F" stroke-miterlimit="10" stroke-linecap="round" stroke-linejoin="round"/>
<path d="M910.06 107.778C906.552 104.649 904.062 100.398 903.045 95.8081" stroke="#85AC8F" stroke-miterlimit="10" stroke-linecap="round" stroke-linejoin="round"/>
<path d="M913.143 106.621C911.019 106.287 908.774 107.837 908.33 109.939C907.901 111.975 909.257 114.258 911.279 114.755C916.507 116.036 919.151 107.563 913.143 106.621Z" fill="#DDB1A2"/>
<path d="M900.841 109.515C899.135 109.425 897.428 110.485 896.751 112.054C896.058 113.661 896.469 115.63 897.599 116.966C898.199 117.674 899.025 118.24 899.95 118.327C901.175 118.442 902.331 117.71 903.187 116.826C905.657 114.277 904.928 109.731 900.841 109.515Z" fill="#DDB1A2"/>
<path d="M910.741 98.1532C909.358 103.827 916.75 104.527 918.279 99.4493C919.888 94.1088 911.942 93.2223 910.741 98.1532Z" fill="#DDB1A2"/>
</g>
<g opacity="0.9">
<path d="M523.916 36.7375C527.493 34.1853 531.258 31.556 535.612 30.9503C538.753 30.5132 541.932 31.176 545.029 31.8575" stroke="#85AC8F" stroke-miterlimit="10" stroke-linecap="round" stroke-linejoin="round"/>
<path d="M521.668 21.1652C524.736 23.3556 527.806 25.5452 530.874 27.7355C532.671 29.0184 534.517 30.3247 536.645 30.912" stroke="#85AC8F" stroke-miterlimit="10" stroke-linecap="round" stroke-linejoin="round"/>
<path d="M517.533 29.8333C522.197 29.2388 527.038 30.1481 531.169 32.3921" stroke="#85AC8F" stroke-miterlimit="10" stroke-linecap="round" stroke-linejoin="round"/>
<path d="M516.384 32.9191C518.029 31.5349 518.333 28.8239 517.037 27.1095C515.783 25.4496 513.17 24.9754 511.469 26.1756C507.071 29.2809 511.732 36.8349 516.384 32.9191Z" fill="#DDB1A2"/>
<path d="M522.271 21.7361C523.458 20.5079 523.778 18.5232 523.038 16.9836C522.279 15.4062 520.524 14.4243 518.774 14.4014C517.846 14.3893 516.877 14.6415 516.205 15.2829C515.314 16.1316 515.109 17.4841 515.214 18.7101C515.518 22.2465 519.426 24.6794 522.271 21.7361Z" fill="#DDB1A2"/>
<path d="M524.351 36.6616C520.976 31.8955 515.598 37.0157 518.427 41.5003C521.402 46.2182 527.284 40.8032 524.351 36.6616Z" fill="#DDB1A2"/>
</g>
<g opacity="0.9">
<path d="M602.974 15.337C599.287 17.7293 595.41 20.1901 591.035 20.6034C587.877 20.9016 584.73 20.1003 581.665 19.283" stroke="#85AC8F" stroke-miterlimit="10" stroke-linecap="round" stroke-linejoin="round"/>
<path d="M604.534 30.9928C601.565 28.6698 598.596 26.3464 595.627 24.0234C593.888 22.6629 592.102 21.2766 590.001 20.5952" stroke="#85AC8F" stroke-miterlimit="10" stroke-linecap="round" stroke-linejoin="round"/>
<path d="M609.046 22.5147C604.361 22.9038 599.564 21.7824 595.536 19.3578" stroke="#85AC8F" stroke-miterlimit="10" stroke-linecap="round" stroke-linejoin="round"/>
<path d="M610.329 19.4831C608.626 20.7932 608.201 23.4888 609.421 25.2589C610.602 26.9726 613.191 27.5614 614.942 26.4369C619.474 23.5283 615.15 15.7758 610.329 19.4831Z" fill="#FFDC8A"/>
<path d="M603.956 30.3966C602.716 31.5717 602.308 33.5397 602.98 35.1102C603.668 36.7195 605.379 37.777 607.126 37.8781C608.053 37.9317 609.032 37.7213 609.732 37.1107C610.659 36.3017 610.924 34.9598 610.873 33.7305C610.726 30.1838 606.927 27.5806 603.956 30.3966Z" fill="#FFDC8A"/>
<path d="M602.536 15.394C605.698 20.3033 611.296 15.4256 608.667 10.82C605.901 5.976 599.788 11.1269 602.536 15.394Z" fill="#FFDC8A"/>
</g>
<path d="M394.39 82C393.581 82 392.9 81.724 392.348 81.172C391.796 80.62 391.52 79.9392 391.52 79.1296V41.7592C391.52 40.9128 391.796 40.232 392.348 39.7168C392.9 39.1648 393.581 38.8888 394.39 38.8888C395.494 38.8888 396.341 39.404 396.93 40.4344L414.207 75.0448H412.441L429.277 40.4344C429.866 39.404 430.712 38.8888 431.816 38.8888C432.626 38.8888 433.306 39.1648 433.858 39.7168C434.41 40.232 434.686 40.9128 434.686 41.7592V79.1296C434.686 79.9392 434.392 80.62 433.803 81.172C433.251 81.724 432.589 82 431.816 82C431.006 82 430.326 81.724 429.774 81.172C429.222 80.62 428.946 79.9392 428.946 79.1296V49.708L430.05 49.432L415.587 78.9088C414.962 79.8656 414.134 80.344 413.103 80.344C411.889 80.344 411.006 79.7736 410.454 78.6328L396.157 49.984L397.261 49.708V79.1296C397.261 79.9392 396.985 80.62 396.433 81.172C395.881 81.724 395.2 82 394.39 82ZM459.384 82.2208C456.33 82.2208 453.606 81.5768 451.214 80.2888C448.859 78.964 447.001 77.1608 445.639 74.8792C444.314 72.5608 443.652 69.9112 443.652 66.9304C443.652 63.9128 444.278 61.2632 445.529 58.9816C446.817 56.6632 448.583 54.86 450.828 53.572C453.073 52.2472 455.649 51.5848 458.556 51.5848C461.426 51.5848 463.892 52.2288 465.953 53.5168C468.014 54.768 469.578 56.516 470.645 58.7608C471.749 60.9688 472.301 63.5264 472.301 66.4336C472.301 67.1328 472.062 67.7216 471.583 68.2C471.105 68.6416 470.498 68.8624 469.762 68.8624H447.516V64.4464H469.596L467.333 65.992C467.296 64.152 466.928 62.5144 466.229 61.0792C465.53 59.6072 464.536 58.448 463.248 57.6016C461.96 56.7552 460.396 56.332 458.556 56.332C456.458 56.332 454.655 56.792 453.146 57.712C451.674 58.632 450.552 59.9016 449.779 61.5208C449.006 63.1032 448.62 64.9064 448.62 66.9304C448.62 68.9544 449.08 70.7576 450 72.34C450.92 73.9224 452.19 75.1736 453.809 76.0936C455.428 77.0136 457.286 77.4736 459.384 77.4736C460.525 77.4736 461.684 77.2712 462.862 76.8664C464.076 76.4248 465.051 75.928 465.787 75.376C466.339 74.9712 466.928 74.7688 467.554 74.7688C468.216 74.732 468.786 74.916 469.265 75.3208C469.89 75.8728 470.222 76.48 470.258 77.1424C470.295 77.8048 470.001 78.3752 469.375 78.8536C468.124 79.8472 466.56 80.6568 464.683 81.2824C462.843 81.908 461.077 82.2208 459.384 82.2208ZM519.116 82.0552C518.306 82.0552 517.625 81.7976 517.073 81.2824C516.558 80.7304 516.3 80.0496 516.3 79.24V63.4528C516.3 61.1344 515.73 59.4232 514.589 58.3192C513.448 57.1784 511.958 56.608 510.118 56.608C508.204 56.608 506.622 57.2704 505.371 58.5952C504.156 59.92 503.549 61.6128 503.549 63.6736H498.968C498.968 61.2816 499.483 59.184 500.513 57.3808C501.544 55.5408 502.979 54.1056 504.819 53.0752C506.696 52.0448 508.83 51.5296 511.222 51.5296C513.32 51.5296 515.178 51.9896 516.797 52.9096C518.416 53.8296 519.668 55.1912 520.551 56.9944C521.471 58.7608 521.931 60.9136 521.931 63.4528V79.24C521.931 80.0496 521.673 80.7304 521.158 81.2824C520.643 81.7976 519.962 82.0552 519.116 82.0552ZM482.297 82.0552C481.488 82.0552 480.807 81.7976 480.255 81.2824C479.74 80.7304 479.482 80.0496 479.482 79.24V54.676C479.482 53.8296 479.74 53.1488 480.255 52.6336C480.807 52.1184 481.488 51.8608 482.297 51.8608C483.144 51.8608 483.824 52.1184 484.34 52.6336C484.855 53.1488 485.112 53.8296 485.112 54.676V79.24C485.112 80.0496 484.855 80.7304 484.34 81.2824C483.824 81.7976 483.144 82.0552 482.297 82.0552ZM500.734 82.0552C499.924 82.0552 499.244 81.7976 498.692 81.2824C498.176 80.7304 497.919 80.0496 497.919 79.24V63.4528C497.919 61.1344 497.348 59.4232 496.208 58.3192C495.067 57.1784 493.576 56.608 491.736 56.608C489.823 56.608 488.24 57.2704 486.989 58.5952C485.738 59.92 485.112 61.6128 485.112 63.6736H481.635C481.635 61.2816 482.113 59.184 483.07 57.3808C484.027 55.5408 485.352 54.1056 487.044 53.0752C488.737 52.0448 490.669 51.5296 492.84 51.5296C494.938 51.5296 496.796 51.9896 498.416 52.9096C500.035 53.8296 501.286 55.1912 502.169 56.9944C503.089 58.7608 503.549 60.9136 503.549 63.4528V79.24C503.549 80.0496 503.292 80.7304 502.776 81.2824C502.261 81.7976 501.58 82.0552 500.734 82.0552ZM544.976 82.2208C541.995 82.2208 539.364 81.5768 537.082 80.2888C534.8 78.964 532.997 77.1608 531.672 74.8792C530.384 72.5608 529.74 69.9112 529.74 66.9304C529.74 63.9128 530.384 61.2632 531.672 58.9816C532.997 56.6632 534.8 54.86 537.082 53.572C539.364 52.2472 541.995 51.5848 544.976 51.5848C547.92 51.5848 550.532 52.2472 552.814 53.572C555.096 54.86 556.88 56.6632 558.168 58.9816C559.493 61.2632 560.156 63.9128 560.156 66.9304C560.156 69.9112 559.512 72.5608 558.224 74.8792C556.936 77.1608 555.151 78.964 552.869 80.2888C550.588 81.5768 547.956 82.2208 544.976 82.2208ZM544.976 77.2528C546.889 77.2528 548.582 76.8112 550.054 75.928C551.526 75.0448 552.667 73.8304 553.476 72.2848C554.323 70.7392 554.746 68.9544 554.746 66.9304C554.746 64.9064 554.323 63.1216 553.476 61.576C552.667 59.9936 551.526 58.7608 550.054 57.8776C548.582 56.9944 546.889 56.5528 544.976 56.5528C543.062 56.5528 541.369 56.9944 539.897 57.8776C538.425 58.7608 537.266 59.9936 536.42 61.576C535.573 63.1216 535.15 64.9064 535.15 66.9304C535.15 68.9544 535.573 70.7392 536.42 72.2848C537.266 73.8304 538.425 75.0448 539.897 75.928C541.369 76.8112 543.062 77.2528 544.976 77.2528ZM571.24 63.1216C571.24 60.9136 571.774 58.9448 572.841 57.2152C573.945 55.4488 575.417 54.0504 577.257 53.02C579.097 51.9896 581.121 51.4744 583.329 51.4744C585.537 51.4744 587.174 51.8424 588.242 52.5784C589.346 53.2776 589.769 54.124 589.511 55.1176C589.401 55.6328 589.18 56.0376 588.849 56.332C588.554 56.5896 588.205 56.7552 587.8 56.8288C587.395 56.9024 586.954 56.884 586.475 56.7736C584.12 56.2952 582.004 56.2584 580.127 56.6632C578.25 57.068 576.76 57.8224 575.656 58.9264C574.589 60.0304 574.055 61.4288 574.055 63.1216H571.24ZM571.295 82C570.412 82 569.731 81.7792 569.253 81.3376C568.774 80.8592 568.535 80.16 568.535 79.24V54.5656C568.535 53.6824 568.774 53.0016 569.253 52.5232C569.731 52.0448 570.412 51.8056 571.295 51.8056C572.215 51.8056 572.896 52.0448 573.338 52.5232C573.816 52.9648 574.055 53.6456 574.055 54.5656V79.24C574.055 80.1232 573.816 80.804 573.338 81.2824C572.896 81.7608 572.215 82 571.295 82ZM605.756 82.2208C603.07 82.2208 600.659 81.5584 598.525 80.2336C596.39 78.872 594.698 77.0504 593.446 74.7688C592.232 72.4504 591.625 69.8376 591.625 66.9304C591.625 64.0232 592.287 61.4104 593.612 59.092C594.974 56.7736 596.795 54.952 599.077 53.6272C601.395 52.2656 603.99 51.5848 606.86 51.5848C609.73 51.5848 612.306 52.2656 614.588 53.6272C616.87 54.952 618.673 56.7736 619.998 59.092C621.359 61.4104 622.04 64.0232 622.04 66.9304H619.887C619.887 69.8376 619.262 72.4504 618.01 74.7688C616.796 77.0504 615.122 78.872 612.987 80.2336C610.853 81.5584 608.442 82.2208 605.756 82.2208ZM606.86 77.2528C608.737 77.2528 610.411 76.8112 611.883 75.928C613.355 75.008 614.514 73.7752 615.361 72.2296C616.207 70.6472 616.63 68.8808 616.63 66.9304C616.63 64.9432 616.207 63.1768 615.361 61.6312C614.514 60.0488 613.355 58.816 611.883 57.9328C610.411 57.0128 608.737 56.5528 606.86 56.5528C605.02 56.5528 603.346 57.0128 601.837 57.9328C600.365 58.816 599.187 60.0488 598.304 61.6312C597.458 63.1768 597.034 64.9432 597.034 66.9304C597.034 68.8808 597.458 70.6472 598.304 72.2296C599.187 73.7752 600.365 75.008 601.837 75.928C603.346 76.8112 605.02 77.2528 606.86 77.2528ZM619.225 82.0552C618.415 82.0552 617.734 81.7976 617.182 81.2824C616.667 80.7304 616.41 80.0496 616.41 79.24V70.7944L617.458 64.9432L622.04 66.9304V79.24C622.04 80.0496 621.764 80.7304 621.212 81.2824C620.697 81.7976 620.034 82.0552 619.225 82.0552ZM632.02 82.8832C630.99 82.8832 630.088 82.5152 629.316 81.7792C628.58 81.0064 628.212 80.1048 628.212 79.0744C628.212 78.0072 628.58 77.1056 629.316 76.3696C630.088 75.5968 630.99 75.2104 632.02 75.2104C633.088 75.2104 633.989 75.5968 634.725 76.3696C635.461 77.1056 635.829 78.0072 635.829 79.0744C635.829 80.1048 635.461 81.0064 634.725 81.7792C633.989 82.5152 633.088 82.8832 632.02 82.8832Z" fill="#111015"/>
</svg>
